<svg width="32" height="32" viewBox="0 0 32 32" fill="none" xmlns="http://www.w3.org/2000/svg">
<path fill-rule="evenodd" clip-rule="evenodd" d="M0 4C0 1.79086 1.79086 0 4 0H28C30.2091 0 32 1.79086 32 4V28C32 30.2091 30.2091 32 28 32H4C1.79086 32 0 30.2091 0 28V4Z" fill="url(#paint0_linear)"/>
<path d="M15.9522 28.9999L9.97429 22.9779L12.9743 22.9889L12.9816 20.9889L18.9816 21.011L18.9742 23.011L21.9742 23.022L15.9522 28.9999Z" fill="#1F1942"/>
<path d="M13.0258 8.98892L13.0479 2.98896L19.0478 3.01103L19.0258 9.01099L13.0258 8.98892Z" fill="#1F1942"/>
<path fill-rule="evenodd" clip-rule="evenodd" d="M4 17.435V17.019C4 16.8977 4.06067 16.837 4.182 16.837H4.767C4.88833 16.837 4.949 16.8977 4.949 17.019V17.357C4.949 18.137 5.33466 18.527 6.106 18.527H7.25C8.02134 18.527 8.407 18.1283 8.407 17.331V16.889C8.407 16.265 7.89134 15.8577 6.86 15.667C6.42666 15.589 5.99334 15.498 5.56 15.394C5.12666 15.29 4.75833 15.0885 4.455 14.7895C4.15167 14.4905 4 14.081 4 13.561V12.924C4 12.326 4.17116 11.8558 4.5135 11.5135C4.85584 11.1712 5.326 11 5.924 11H7.367C7.95634 11 8.42433 11.1712 8.771 11.5135C9.11767 11.8558 9.291 12.326 9.291 12.924V13.249C9.291 13.379 9.23467 13.444 9.122 13.444H8.524C8.41133 13.444 8.355 13.379 8.355 13.249V13.015C8.355 12.2263 7.96934 11.832 7.198 11.832H6.093C5.32166 11.832 4.936 12.2437 4.936 13.067V13.587C4.936 14.029 5.22633 14.3323 5.807 14.497C6.067 14.5663 6.353 14.6292 6.665 14.6855C6.977 14.7418 7.29117 14.8155 7.6075 14.9065C7.92383 14.9975 8.212 15.1102 8.472 15.2445C8.732 15.3788 8.94217 15.5825 9.1025 15.8555C9.26283 16.1285 9.343 16.46 9.343 16.85V17.435C9.343 18.033 9.16967 18.5032 8.823 18.8455C8.47633 19.1878 8.00834 19.359 7.419 19.359H5.924C5.33466 19.359 4.86667 19.1878 4.52 18.8455C4.17333 18.5032 4 18.033 4 17.435ZM15.57 19.359H11.488C11.3667 19.359 11.306 19.2983 11.306 19.177V11.182C11.306 11.0607 11.3667 11 11.488 11H15.57C15.6913 11 15.752 11.0607 15.752 11.182V11.65C15.752 11.7713 15.6913 11.832 15.57 11.832H12.385C12.2983 11.832 12.255 11.871 12.255 11.949V14.575C12.255 14.653 12.2983 14.692 12.385 14.692H15.167C15.2883 14.692 15.349 14.7527 15.349 14.874V15.342C15.349 15.4633 15.2883 15.524 15.167 15.524H12.385C12.2983 15.524 12.255 15.563 12.255 15.641V18.41C12.255 18.488 12.2983 18.527 12.385 18.527H15.57C15.6913 18.527 15.752 18.5877 15.752 18.709V19.177C15.752 19.2983 15.6913 19.359 15.57 19.359ZM21.901 19.359H17.728C17.6067 19.359 17.546 19.2983 17.546 19.177V11.182C17.546 11.0607 17.6067 11 17.728 11H18.313C18.4343 11 18.495 11.0607 18.495 11.182V18.384C18.495 18.462 18.5383 18.501 18.625 18.501H21.901C22.0223 18.501 22.083 18.566 22.083 18.696V19.177C22.083 19.2983 22.0223 19.359 21.901 19.359ZM27.764 19.359H23.591C23.4697 19.359 23.409 19.2983 23.409 19.177V11.182C23.409 11.0607 23.4697 11 23.591 11H24.176C24.2973 11 24.358 11.0607 24.358 11.182V18.384C24.358 18.462 24.4013 18.501 24.488 18.501H27.764C27.8853 18.501 27.946 18.566 27.946 18.696V19.177C27.946 19.2983 27.8853 19.359 27.764 19.359Z" fill="#1F1942"/>
<defs>
<linearGradient id="paint0_linear" x1="-30.0597" y1="20.6323" x2="19.1823" y2="80.7517" gradientUnits="userSpaceOnUse">
<stop stop-color="white"/>
<stop offset="1" stop-color="#2784DB"/>
</linearGradient>
</defs>
</svg>
