<?xml version="1.0" encoding="UTF-8"?>
<svg width="32px" height="32px" viewBox="0 0 32 32" version="1.1" xmlns="http://www.w3.org/2000/svg" xmlns:xlink="http://www.w3.org/1999/xlink">
    <!-- Generator: Sketch 54.1 (76490) - https://sketchapp.com -->
    <title>BUY</title>
    <desc>Created with Sketch.</desc>
    <defs>
        <linearGradient x1="0%" y1="-12.4644886%" x2="153.881138%" y2="175.408381%" id="linearGradient-1">
            <stop stop-color="#FFFFFF" offset="0%"></stop>
            <stop stop-color="#2784DB" offset="100%"></stop>
        </linearGradient>
    </defs>
    <g id="Exchange" stroke="none" stroke-width="1" fill="none" fill-rule="evenodd">
        <g id="Exchange-3---Process-Part-2" transform="translate(-1248.000000, -112.000000)">
            <g id="Chart---Chart---Trade" transform="translate(364.000000, 68.000000)">
                <g id="Legend-top" transform="translate(0.000000, 40.000000)">
                    <g id="Icons" transform="translate(836.000000, 4.000000)">
                        <g id="BUY" transform="translate(48.000000, 0.000000)">
                            <path d="M4,0 L28,0 C30.209139,-4.05812251e-16 32,1.790861 32,4 L32,28 C32,30.209139 30.209139,32 28,32 L4,32 C1.790861,32 2.705415e-16,30.209139 0,28 L0,4 C-2.705415e-16,1.790861 1.790861,4.05812251e-16 4,0 Z" id="BG" fill="url(#linearGradient-1)"></path>
                            <path d="M7.826,19.256 L9.794,19.256 C10.4820034,19.256 10.826,18.9160034 10.826,18.236 L10.826,17.456 C10.826,16.7759966 10.4580037,16.436 9.722,16.436 L7.826,16.436 C7.7459996,16.436 7.706,16.4719996 7.706,16.544 L7.706,19.136 C7.706,19.2160004 7.7459996,19.256 7.826,19.256 Z M7.826,15.704 L9.674,15.704 C10.3780035,15.704 10.73,15.3640034 10.73,14.684 L10.73,14.048 C10.73,13.3679966 10.3900034,13.028 9.71,13.028 L7.826,13.028 C7.7459996,13.028 7.706,13.0679996 7.706,13.148 L7.706,15.596 C7.706,15.6680004 7.7459996,15.704 7.826,15.704 Z M6.83,19.832 L6.83,12.452 C6.83,12.3399994 6.88599944,12.284 6.998,12.284 L9.818,12.284 C10.3700028,12.284 10.8019984,12.4379985 11.114,12.746 C11.4260016,13.0540015 11.582,13.4839972 11.582,14.036 L11.582,14.696 C11.582,15.4080036 11.2460034,15.867999 10.574,16.076 C10.8780015,16.1000001 11.1379989,16.2339988 11.354,16.478 C11.5700011,16.7220012 11.678,17.043998 11.678,17.444 L11.678,18.248 C11.678,18.8000028 11.5200016,19.2299985 11.204,19.538 C10.8879984,19.8460015 10.4540028,20 9.902,20 L6.998,20 C6.88599944,20 6.83,19.9440006 6.83,19.832 Z M17.522,12.284 L18.062,12.284 C18.1740006,12.284 18.23,12.3359995 18.23,12.44 L18.23,18.224 C18.23,18.7840028 18.0740016,19.2199984 17.762,19.532 C17.4499984,19.8440016 17.0180028,20 16.466,20 L15.134,20 C14.5819972,20 14.1480016,19.8440016 13.832,19.532 C13.5159984,19.2199984 13.358,18.784 13.358,18.224 L13.358,12.452 C13.358,12.3399994 13.4139994,12.284 13.526,12.284 L14.066,12.284 C14.1780006,12.284 14.234,12.3399994 14.234,12.452 L14.234,18.188 C14.234,18.8840035 14.5659967,19.232 15.23,19.232 L16.358,19.232 C17.0300034,19.232 17.366,18.8840035 17.366,18.188 L17.366,12.452 C17.366,12.3399994 17.4179995,12.284 17.522,12.284 Z M22.382,20 L21.842,20 C21.7299994,20 21.674,19.9440006 21.674,19.832 L21.674,17.108 L19.394,12.464 C19.3699999,12.4079997 19.3699999,12.3640002 19.394,12.332 C19.4180001,12.2999998 19.4539998,12.284 19.502,12.284 L20.174,12.284 C20.2620004,12.284 20.3299998,12.3399994 20.378,12.452 L22.094,16.088 L22.154,16.088 L23.858,12.452 C23.8900002,12.3399994 23.9539995,12.284 24.05,12.284 L24.734,12.284 C24.8700007,12.284 24.9060003,12.3439994 24.842,12.464 L22.55,17.108 L22.55,19.832 C22.55,19.9440006 22.4940006,20 22.382,20 Z M16,2 L22,8 L19,8 L19,10 L13,10 L13,8 L10,8 L16,2 Z M19,22 L19,28 L13,28 L13,22 L19,22 Z" fill="#1F1942" fill-rule="nonzero"></path>
                        </g>
                    </g>
                </g>
            </g>
        </g>
    </g>
</svg>