<svg viewBox="0 0 33 30" fill="none" xmlns="http://www.w3.org/2000/svg">
    <path fillRule="evenodd" clipRule="evenodd" d="M17.3018 1.28188C17.6828 0.575375 16.8053 -0.281125 16.0868 0.089375V0.087875C15.5018 0.317375 15.3533 1.15138 15.8078 1.57138C16.2368 2.01087 17.0783 1.85787 17.3018 1.28188ZM9.29933 1.59388C9.34433 1.12438 8.79083 0.731375 8.35433 0.908375C7.74683 1.06738 7.67933 2.00938 8.26883 2.23438C8.71433 2.47588 9.34433 2.10088 9.29933 1.59388ZM24.1913 2.24787C23.5088 2.16687 23.4008 1.11088 24.0563 0.897875C24.5663 0.654875 25.0343 1.11238 25.1093 1.58788C25.0013 1.99287 24.6563 2.36488 24.1913 2.24787ZM11.7728 5.20288C11.8853 4.36738 10.8443 3.69088 10.1138 4.14538C9.42983 4.49038 9.33533 5.51638 9.95633 5.96338C10.5983 6.53338 11.7353 6.04437 11.7728 5.20288ZM21.2588 4.62838C21.5843 3.80338 22.9043 3.77638 23.2748 4.58038C23.6423 5.20588 23.1908 5.98138 22.5383 6.19438C21.6728 6.35337 20.8523 5.43237 21.2588 4.62838ZM16.4903 4.85938C15.8048 4.90887 15.1478 5.43687 15.1553 6.14787C15.1163 6.72687 15.5378 7.20237 16.0373 7.44238C16.0869 7.44533 16.1371 7.44925 16.1878 7.4532C16.4712 7.47531 16.7668 7.49837 17.0213 7.35838C17.6768 7.07188 18.0008 6.21537 17.6363 5.59137C17.4413 5.13987 16.9463 4.94938 16.4903 4.85938ZM3.65633 7.18288C4.32383 6.77787 5.22383 7.51288 4.97033 8.22688C4.83233 8.84338 3.98933 9.09387 3.50783 8.70088C2.99333 8.33187 3.07433 7.44537 3.65783 7.18138L3.65633 7.18288ZM29.7803 7.94637C29.8493 7.24438 28.9148 6.74788 28.3493 7.17988V7.18138C27.7673 7.53088 27.8318 8.46688 28.4498 8.74137C29.0108 9.07137 29.8193 8.58687 29.7803 7.94637ZM18.3893 8.45638C19.3223 8.12638 20.4323 8.52087 20.9633 9.34138C21.6653 10.3419 21.2933 11.8659 20.2028 12.4404C19.0748 13.1199 17.4263 12.5454 17.0078 11.3034C16.5353 10.1934 17.2253 8.80437 18.3878 8.45638H18.3893ZM15.8378 9.52888C15.3383 8.48787 13.9448 8.08588 12.9098 8.56588C11.8073 9.05037 11.3003 10.4799 11.8718 11.5329C12.3803 12.6204 13.8668 13.0674 14.9198 12.4779C15.9713 11.9544 16.4258 10.5429 15.8378 9.52888ZM7.42433 10.4094C7.50383 9.75387 8.13233 9.32638 8.76683 9.28137C9.44828 9.35334 9.98962 9.88659 10.0718 10.5669C10.0268 11.2419 9.49733 11.8989 8.77133 11.8959C7.97183 11.9634 7.27133 11.1804 7.42433 10.4094ZM25.5503 10.5654C25.5863 9.63838 24.4478 8.95588 23.6273 9.42537C22.7468 9.83337 22.6808 11.1834 23.5298 11.6634C24.3458 12.2394 25.6058 11.5479 25.5503 10.5654ZM10.6823 12.8859C11.6393 12.6264 12.7373 13.0704 13.2068 13.9374C13.7213 14.8104 13.5113 16.0224 12.7118 16.6644C11.6843 17.6034 9.79283 17.2254 9.24683 15.9444C8.61833 14.7699 9.38183 13.1949 10.6808 12.8844L10.6823 12.8859ZM23.6003 13.8069C23.0993 12.9714 22.0043 12.6189 21.0728 12.8814C19.7618 13.2339 19.0673 14.8689 19.7573 16.0254C20.3273 17.1444 21.9263 17.5194 22.9613 16.8039C23.9468 16.1889 24.2633 14.7624 23.6003 13.8069ZM4.51283 13.9704C5.34083 13.6629 6.25883 14.5614 5.92283 15.3699C5.71883 16.1049 4.66433 16.3779 4.11983 15.8349C3.48233 15.3249 3.71783 14.1924 4.51283 13.9704ZM28.1483 13.8324C27.4614 13.8711 26.934 14.4561 26.9663 15.1434C27.1043 15.4584 27.2708 15.7869 27.5963 15.9504C28.2923 16.3269 29.2748 15.7824 29.2223 14.9799C29.2673 14.3724 28.7153 13.9224 28.1483 13.8324ZM0.440334 14.3694C0.938334 14.1549 1.55483 14.5794 1.44083 15.1239C1.41383 15.7404 0.488333 15.9789 0.149333 15.4629C-0.150667 15.1044 0.0293335 14.5539 0.440334 14.3679V14.3694ZM32.9168 14.6904C32.7788 14.2869 32.2148 14.1114 31.8638 14.3559C31.2803 14.6634 31.5083 15.7239 32.2163 15.6609C32.7203 15.7344 33.1523 15.1314 32.9168 14.6904ZM13.3883 17.3154C14.6993 16.9809 16.1093 18.0564 16.1183 19.3854C16.2023 20.7279 14.8133 21.9174 13.4723 21.6084C12.4343 21.4434 11.6198 20.4594 11.6543 19.4289C11.6513 18.4419 12.4073 17.5239 13.3883 17.3154ZM21.3428 19.4019C21.3638 18.0429 19.9118 16.9479 18.5813 17.3139V17.3124C17.7923 17.5074 17.1233 18.1464 16.9493 18.9324C16.6043 20.1144 17.5163 21.4509 18.7538 21.6069C20.0678 21.8694 21.4133 20.7189 21.3428 19.4019ZM8.56733 18.1314C9.48833 17.9769 10.3523 18.9864 9.97883 19.8474C9.70583 20.7654 8.34983 21.0129 7.74983 20.2644C7.04783 19.5444 7.57283 18.2304 8.56733 18.1314ZM25.5653 19.4094C25.6283 18.5319 24.6203 17.8329 23.7983 18.1719C22.8068 18.4809 22.6403 19.9704 23.5508 20.4759C24.3533 21.0399 25.5983 20.3739 25.5653 19.4094ZM28.0553 22.3719C27.7343 21.7824 28.3178 21.0009 28.9853 21.1104C29.2989 21.1047 29.5245 21.336 29.7276 21.5444L29.7593 21.5769L29.7671 21.6378C29.8101 21.9739 29.8593 22.3588 29.5808 22.6119C29.1803 23.1114 28.2728 22.9689 28.0553 22.3719ZM5.03033 22.1889C5.17133 21.4749 4.27583 20.8674 3.65333 21.2739C3.06083 21.5709 3.03983 22.4994 3.61283 22.8249C4.14533 23.1849 4.95533 22.8234 5.03033 22.1889ZM15.9428 22.5984C16.7573 22.2459 17.7953 22.9434 17.7173 23.8254C17.7773 24.8004 16.4948 25.4754 15.6983 24.8904C14.8133 24.3879 14.9618 22.9089 15.9428 22.5984ZM11.8118 24.9309C11.8748 24.1659 10.9448 23.5464 10.2518 23.9049V23.9064C9.76283 24.0864 9.56333 24.6159 9.55433 25.0914C9.72233 25.5279 10.0613 25.9884 10.5818 25.9989C11.2118 26.0919 11.8328 25.5579 11.8118 24.9309ZM21.7808 23.9169C22.4948 23.4819 23.5088 24.1059 23.4413 24.9219C23.4593 25.7769 22.3133 26.3229 21.6488 25.7619C21.0068 25.3224 21.0848 24.2664 21.7808 23.9169ZM24.3563 27.6444C23.8418 27.7524 23.4683 28.3209 23.7863 28.7919V28.7934C24.1118 29.3409 25.0628 29.1459 25.1228 28.5054C25.2113 28.0344 24.7718 27.7269 24.3563 27.6444ZM7.86983 28.3824C7.99583 28.0074 8.30183 27.6369 8.75033 27.7344C9.40283 27.7794 9.59633 28.7484 9.02483 29.0469C8.51183 29.3874 7.91483 28.9209 7.86983 28.3824ZM16.8818 28.2834C16.4018 27.9894 15.6743 28.2579 15.5498 28.8129H15.5483C15.3203 29.3724 15.8693 30.0489 16.4768 29.9784C16.8038 29.9859 17.0573 29.7564 17.2538 29.5284C17.291 29.3727 17.331 29.2176 17.3738 29.0634L17.3722 29.0574C17.2916 28.7617 17.1977 28.4175 16.8818 28.2834Z" fill="white"/>
</svg>