<svg width="36" height="40" viewBox="0 0 36 40" fill="none" xmlns="http://www.w3.org/2000/svg">
<path d="M21 1.73205L32.3205 8.26795C34.1769 9.33975 35.3205 11.3205 35.3205 13.4641V26.5359C35.3205 28.6795 34.1769 30.6603 32.3205 31.732L21 38.2679C19.1436 39.3397 16.8564 39.3397 15 38.2679L3.67949 31.732C1.82308 30.6603 0.679489 28.6795 0.679489 26.5359V13.4641C0.679489 11.3205 1.82308 9.33975 3.67949 8.26795L15 1.73205C16.8564 0.660254 19.1436 0.660254 21 1.73205Z" fill="#F7931A"/>
<path style="mix-blend-mode:overlay" d="M21 1.73205L32.3205 8.26795C34.1769 9.33975 35.3205 11.3205 35.3205 13.4641V26.5359C35.3205 28.6795 34.1769 30.6603 32.3205 31.732L21 38.2679C19.1436 39.3397 16.8564 39.3397 15 38.2679L3.67949 31.732C1.82308 30.6603 0.679489 28.6795 0.679489 26.5359V13.4641C0.679489 11.3205 1.82308 9.33975 3.67949 8.26795L15 1.73205C16.8564 0.660254 19.1436 0.660254 21 1.73205Z" fill="url(#paint0_linear)"/>
<path d="M25.5343 17.8786C25.8707 15.6329 24.1596 14.4254 21.8218 13.6196L22.5804 10.5768L20.7289 10.1161L19.9896 13.0786C19.5032 12.9564 19.0039 12.8429 18.5057 12.7293L19.2504 9.7475L17.3989 9.28571L16.6404 12.3275C16.2375 12.2354 15.8411 12.1454 15.4575 12.0489L15.4596 12.0393L12.9054 11.4018L12.4125 13.3796C12.4125 13.3796 13.7871 13.6946 13.7582 13.7139C14.5082 13.9014 14.6432 14.3975 14.6207 14.7918L13.7571 18.2579C13.8086 18.2707 13.875 18.29 13.95 18.3189L13.7539 18.2707L12.5432 23.1264C12.4511 23.3536 12.2186 23.6954 11.6936 23.5657C11.7129 23.5925 10.3479 23.2304 10.3479 23.2304L9.42857 25.3496L11.8393 25.9507C12.2871 26.0632 12.7264 26.1811 13.1582 26.2914L12.3921 29.3686L14.2425 29.8293L15.0011 26.7864C15.5068 26.9225 15.9975 27.0489 16.4775 27.1689L15.7211 30.1989L17.5725 30.6596L18.3386 27.5889C21.4971 28.1868 23.8714 27.9457 24.8711 25.0893C25.6768 22.79 24.8314 21.4625 23.1696 20.5979C24.3804 20.3193 25.2911 19.5232 25.5343 17.8786ZM21.3021 23.8121C20.7311 26.1125 16.8579 24.8686 15.6021 24.5568L16.62 20.48C17.8757 20.7939 21.9011 21.4143 21.3021 23.8121ZM21.8754 17.8454C21.3536 19.9379 18.1307 18.8739 17.0861 18.6136L18.0075 14.9171C19.0521 15.1775 22.4196 15.6629 21.8754 17.8454Z" fill="white"/>
<defs>
<linearGradient id="paint0_linear" x1="10.3063" y1="5.5099" x2="28.6589" y2="32.7678" gradientUnits="userSpaceOnUse">
<stop stop-color="white" stop-opacity="0.5"/>
<stop offset="1" stop-color="white" stop-opacity="0"/>
</linearGradient>
</defs>
</svg>
