<svg width="33" height="33" viewBox="0 0 33 33" fill="none" xmlns="http://www.w3.org/2000/svg">
<path d="M22.2757 9.16651L16.3339 3.1787L10.3428 9.11732L13.3261 9.12962L13.3179 11.1174L19.2843 11.1419L19.2925 9.15421L22.2757 9.16651Z" fill="url(#paint0_linear)"/>
<path d="M18.3422 13.4081L17.8052 13.4059C17.7018 13.4055 17.6499 13.4609 17.6494 13.5722L17.6259 19.273C17.6231 19.9648 17.2875 20.3093 16.6193 20.3065L15.4976 20.3019C14.8373 20.2992 14.5086 19.9519 14.5114 19.2602L14.5349 13.5594C14.5354 13.4481 14.4799 13.3922 14.3686 13.3917L13.8316 13.3895C13.7202 13.389 13.6643 13.4445 13.6638 13.5558L13.6402 19.2924C13.6379 19.849 13.7932 20.2829 14.1062 20.5943C14.4191 20.9057 14.8501 21.0625 15.399 21.0648L16.7235 21.0702C17.2724 21.0725 17.7027 20.9192 18.0142 20.6104C18.3257 20.3016 18.4826 19.8689 18.4849 19.3124L18.5086 13.5638C18.5091 13.4605 18.4536 13.4086 18.3422 13.4081Z" fill="url(#paint1_linear)"/>
<path fill-rule="evenodd" clip-rule="evenodd" d="M7.14209 20.8638L7.17233 13.529C7.17279 13.4177 7.2287 13.3623 7.34008 13.3627L10.1443 13.3743C10.6932 13.3766 11.1222 13.5314 11.4312 13.8388C11.7402 14.1462 11.8935 14.5742 11.8913 15.1228L11.8886 15.7787C11.8856 16.4864 11.5496 16.9422 10.8805 17.1462C11.1827 17.1713 11.4407 17.3055 11.6545 17.5489C11.8683 17.7923 11.9744 18.1127 11.9728 18.5103L11.9695 19.3094C11.9672 19.858 11.8083 20.2847 11.4928 20.5895C11.1773 20.8943 10.7451 21.0456 10.1962 21.0433L7.30847 21.0314C7.19709 21.031 7.14164 20.9751 7.14209 20.8638ZM8.14944 16.7652L9.9871 16.7727C10.6872 16.7756 11.0386 16.4392 11.0414 15.7633L11.044 15.1312C11.0468 14.4554 10.7101 14.1161 10.0339 14.1133L8.1604 14.1056C8.08085 14.1053 8.04091 14.1448 8.04058 14.2244L8.03055 16.6573C8.03025 16.7289 8.06988 16.7648 8.14944 16.7652ZM8.13488 20.2954L10.0919 20.3035C10.776 20.3063 11.1195 19.9698 11.1223 19.2939L11.1255 18.5187C11.1283 17.8429 10.7637 17.5035 10.0318 17.5005L8.14644 17.4927C8.06688 17.4924 8.02696 17.528 8.02667 17.5995L8.01605 20.1756C8.01572 20.2551 8.05533 20.2951 8.13488 20.2954Z" fill="url(#paint2_linear)"/>
<path d="M22.6064 21.0945L22.0695 21.0923C21.9581 21.0918 21.9026 21.0359 21.9031 20.9246L21.9142 18.2173L19.666 13.5925C19.6424 13.5367 19.6426 13.493 19.6666 13.4613C19.6906 13.4296 19.7264 13.4138 19.7742 13.414L20.4424 13.4168C20.5299 13.4171 20.5973 13.4731 20.6446 13.5846L22.3361 17.2053L22.3957 17.2056L24.1051 13.5988C24.1374 13.4876 24.2013 13.4323 24.2967 13.4326L24.9769 13.4354C25.1121 13.436 25.1477 13.4958 25.0836 13.6148L22.7853 18.2209L22.7742 20.9282C22.7737 21.0395 22.7178 21.095 22.6064 21.0945Z" fill="url(#paint3_linear)"/>
<path d="M19.2352 23.0684L19.2106 29.0316L13.2441 29.007L13.2687 23.0438L19.2352 23.0684Z" fill="url(#paint4_linear)"/>
<defs>
<linearGradient id="paint0_linear" x1="-9.70744" y1="19.7326" x2="30.1638" y2="53.815" gradientUnits="userSpaceOnUse">
<stop stop-color="white"/>
<stop offset="1" stop-color="#2784DB"/>
</linearGradient>
<linearGradient id="paint1_linear" x1="-9.70744" y1="19.7326" x2="30.1638" y2="53.815" gradientUnits="userSpaceOnUse">
<stop stop-color="white"/>
<stop offset="1" stop-color="#2784DB"/>
</linearGradient>
<linearGradient id="paint2_linear" x1="-9.70744" y1="19.7326" x2="30.1638" y2="53.815" gradientUnits="userSpaceOnUse">
<stop stop-color="white"/>
<stop offset="1" stop-color="#2784DB"/>
</linearGradient>
<linearGradient id="paint3_linear" x1="-9.70744" y1="19.7326" x2="30.1638" y2="53.815" gradientUnits="userSpaceOnUse">
<stop stop-color="white"/>
<stop offset="1" stop-color="#2784DB"/>
</linearGradient>
<linearGradient id="paint4_linear" x1="-9.70744" y1="19.7326" x2="30.1638" y2="53.815" gradientUnits="userSpaceOnUse">
<stop stop-color="white"/>
<stop offset="1" stop-color="#2784DB"/>
</linearGradient>
</defs>
</svg>
