<svg width="36" height="40" viewBox="0 0 36 40" fill="none" xmlns="http://www.w3.org/2000/svg">
<path d="M21 1.73205L32.3205 8.26795C34.1769 9.33974 35.3205 11.3205 35.3205 13.4641V26.5359C35.3205 28.6795 34.1769 30.6602 32.3205 31.732L21 38.2679C19.1436 39.3397 16.8564 39.3397 15 38.2679L3.67949 31.732C1.82308 30.6602 0.679489 28.6795 0.679489 26.5359V13.4641C0.679489 11.3205 1.82308 9.33974 3.67949 8.26795L15 1.73205C16.8564 0.660251 19.1436 0.660251 21 1.73205Z" fill="#2D5FDC"/>
<path style="mix-blend-mode:overlay" d="M21 1.73205L32.3205 8.26795C34.1769 9.33974 35.3205 11.3205 35.3205 13.4641V26.5359C35.3205 28.6795 34.1769 30.6602 32.3205 31.732L21 38.2679C19.1436 39.3397 16.8564 39.3397 15 38.2679L3.67949 31.732C1.82308 30.6602 0.679489 28.6795 0.679489 26.5359V13.4641C0.679489 11.3205 1.82308 9.33974 3.67949 8.26795L15 1.73205C16.8564 0.660251 19.1436 0.660251 21 1.73205Z" fill="url(#paint0_linear)"/>
<mask id="mask0" mask-type="alpha" maskUnits="userSpaceOnUse" x="6" y="13" width="24" height="14">
<path d="M6.5423 13.0905H29.0637V26.095H6.5423V13.0905Z" fill="white"/>
</mask>
<g mask="url(#mask0)">
<path fill-rule="evenodd" clip-rule="evenodd" d="M11.2183 13.105H11.9377C12.1773 13.1021 12.3805 13.1024 12.5892 13.1024C16.4468 13.1032 20.3042 13.1033 24.1617 13.1025C24.3852 13.1024 24.6097 13.0905 24.8316 13.0905H26.81C27.8834 13.0877 28.5841 13.7542 28.9644 14.7586C29.1174 15.1965 29.0743 15.4825 28.9644 15.9354C28.9092 16.1072 28.852 16.2783 28.7993 16.4509C28.15 18.5695 27.4279 20.6656 26.6297 22.7289C25.8722 24.6871 24.3501 25.9728 22.2807 26.0244C17.1756 26.1515 12.0656 26.0687 6.95746 26.0666C6.51332 26.0664 6.4697 25.9887 6.62105 25.5417C6.82869 24.9281 7.03903 24.3153 7.25179 23.7034C7.56573 22.8004 7.56699 22.8006 8.52389 22.8006C12.6733 22.8012 16.8227 22.7961 20.972 22.8105C21.4547 22.8121 21.7005 22.6393 21.8534 22.176C22.434 20.4162 23.0495 18.6683 23.6482 16.9146C23.8384 16.3573 23.8145 16.3251 23.2305 16.3248C20.5192 16.323 17.8078 16.324 15.0965 16.3239C13.5237 16.3238 11.9508 16.3259 10.3779 16.3221C9.81479 16.3207 9.7763 16.2589 9.96506 15.7155C10.2074 15.0182 10.4609 14.3247 10.691 13.6234C10.788 13.328 10.8155 13.1281 11.2183 13.105Z" fill="white"/>
<path fill-rule="evenodd" clip-rule="evenodd" d="M11.1998 18.0067C12.4124 18.0063 13.6251 18.0032 14.8377 18.0078C15.3811 18.0099 15.4215 18.0716 15.2356 18.586C14.9898 19.2656 14.7298 19.9401 14.4911 20.6221C14.3756 20.9519 14.1708 21.1006 13.8216 21.0998C11.3665 21.0946 8.9112 21.1007 6.45594 21.0951C5.97861 21.0939 5.92025 21.0036 6.07915 20.553C6.31943 19.8714 6.58148 19.1977 6.81978 18.5155C6.94685 18.1519 7.1758 17.9981 7.56186 18.0023C8.77433 18.0153 9.98717 18.0071 11.1998 18.0067Z" fill="white"/>
</g>
<defs>
<linearGradient id="paint0_linear" x1="10.3063" y1="5.5099" x2="28.6589" y2="32.7678" gradientUnits="userSpaceOnUse">
<stop stop-color="white" stop-opacity="0.5"/>
<stop offset="1" stop-color="white" stop-opacity="0"/>
</linearGradient>
</defs>
</svg>
