<svg width="34" height="34" viewBox="0 0 34 34" fill="none" xmlns="http://www.w3.org/2000/svg">
    <path fill-rule="evenodd" clip-rule="evenodd" d="M17 34C26.3888 34 34 26.3888 34 17C34 7.61116 26.3888 0 17 0C7.61116 0 0 7.61116 0 17C0 26.3888 7.61116 34 17 34Z" fill="url(#paint0_linear)"/>
    <path fill-rule="evenodd" clip-rule="evenodd" d="M21.6254 15.9731C21.5752 15.9228 21.523 15.8707 21.4728 15.8204C21.4322 15.7798 21.3916 15.7393 21.353 15.7006C20.6091 14.9568 19.8652 14.2129 19.1213 13.469C18.8489 13.1966 18.5745 12.9241 18.3021 12.6498C18.2094 12.557 18.1166 12.4643 18.0258 12.3716C17.935 12.2807 17.8442 12.1899 17.7534 12.0991C17.4172 12.4353 17.0791 12.7734 16.7429 13.1096C16.256 13.5965 15.7691 14.0834 15.2822 14.5703C14.7257 15.1268 14.1712 15.6813 13.6167 16.2358C13.0622 16.7903 12.5076 17.3449 11.9531 17.8994L10.5079 19.3446C10.1698 19.6828 9.83163 20.0209 9.4935 20.359C9.40076 20.4517 9.30802 20.5445 9.21528 20.6372C9.10901 20.7435 9.01627 20.8285 9.01047 21.0024C8.99115 21.5048 9.01047 22.011 9.0124 22.5133C9.0124 23.1703 9.01433 23.8253 9.01433 24.4822C9.01433 24.5208 9.01433 24.5614 9.01433 24.6C9.01433 24.8087 9.19016 24.9865 9.40076 24.9865C9.90119 24.9865 10.4016 24.9865 10.902 24.9884C11.5609 24.9884 12.2178 24.9903 12.8767 24.9903C12.9366 24.9903 12.9926 24.9923 13.0506 24.9845C13.1472 24.971 13.2264 24.9227 13.294 24.857C13.3578 24.7933 13.4215 24.7295 13.4853 24.6657C13.779 24.3721 14.0707 24.0803 14.3644 23.7866C14.8185 23.3326 15.2725 22.8785 15.7266 22.4245C16.2695 21.8815 16.8124 21.3386 17.3573 20.7937C17.9196 20.2315 18.4799 19.6712 19.0421 19.1089C19.5503 18.6008 20.0604 18.0907 20.5685 17.5825C20.953 17.198 21.3375 16.8135 21.722 16.429C21.7819 16.3691 21.8437 16.3073 21.9055 16.2474C21.8089 16.1566 21.7181 16.0658 21.6254 15.9731Z" fill="white"/>
    <path fill-rule="evenodd" clip-rule="evenodd" d="M24.6589 11.9079C24.5082 11.7572 24.3575 11.6065 24.2049 11.4539C23.6716 10.9206 23.1403 10.3893 22.607 9.85599C22.4428 9.69176 22.2766 9.52753 22.1124 9.36137C22.0138 9.26283 21.9037 9.17395 21.7762 9.11598C21.4361 8.96141 21.013 8.96528 20.6981 9.18361C20.5261 9.3034 20.3831 9.4657 20.2343 9.61254C19.9851 9.86179 19.7359 10.111 19.4866 10.3603C19.1813 10.6656 18.8741 10.9689 18.5688 11.2742L22.1742 14.8795C22.265 14.9704 22.3558 15.0612 22.4466 15.152L22.7191 15.4244C22.8485 15.295 22.9799 15.1636 23.1094 15.0341C23.5325 14.611 23.9556 14.1878 24.3788 13.7647C24.4735 13.67 24.5662 13.5773 24.6609 13.4826C24.6647 13.4787 24.6705 13.473 24.6744 13.4691C24.6802 13.4633 24.6841 13.4594 24.6899 13.4536C25.1014 13.0131 25.0859 12.3369 24.6589 11.9079Z" fill="white"/>
    <defs>
        <linearGradient id="paint0_linear" x1="0" y1="34" x2="33.9999" y2="34" gradientUnits="userSpaceOnUse">
            <stop stop-color="#21F9F9"/>
            <stop offset="1" stop-color="#6048BC"/>
        </linearGradient>
    </defs>
</svg>
