<svg viewBox="0 0 29 33" fill="none" xmlns="http://www.w3.org/2000/svg">
    <path fillRule="evenodd" clipRule="evenodd" d="M28.4991 8.709C28.5366 8.2455 28.1451 8.0325 27.9741 7.9425L27.8781 7.8855L27.8751 7.8825H27.8721L23.8716 5.5545L21.3291 4.0755L18.7251 2.5605C17.3316 1.7475 15.8886 0.9075 14.4696 0.0855L14.3256 0L14.1711 0.06C14.0333 0.111701 13.8998 0.174404 13.7721 0.2475L13.7571 0.2565C11.8041 1.416 9.78508 2.6145 7.80208 3.789L5.19658 5.334C3.62308 6.267 1.99708 7.2315 0.407078 8.181C0.0170783 8.3685 0.0260783 8.784 0.0320783 8.9865V9.033C0.033159 9.05801 0.032658 9.08306 0.0305783 9.108V9.123C0.0275783 12.771 0.0215783 16.5435 0.0125783 20.2575L0.0020783 24.3855C-0.0189217 24.6915 0.120578 24.96 0.359078 25.0755C3.14795 26.6793 5.97739 28.312 8.71642 29.8925L8.86108 29.976L13.8741 32.868C13.9955 32.9494 14.1374 32.9952 14.2836 33C14.3996 33.0005 14.5124 32.9625 14.6046 32.892L21.8706 28.65L24.6006 27.057L28.0506 25.0425C28.3277 24.9201 28.4977 24.6366 28.4751 24.3345L28.4991 8.709ZM19.2636 28.8525L14.8206 31.4475L14.8296 24.783L17.2956 23.3505C17.9781 22.95 18.6756 22.545 19.3506 22.155L21.2166 21.0675H21.2181L21.2571 21.0435C21.3653 20.9843 21.4594 20.9024 21.5331 20.8035L21.6006 20.7105V20.5965C21.588 18.934 21.585 17.2715 21.5916 15.609V12.945L27.3666 9.567L27.3591 15.3645L27.3441 24.138C24.6512 25.7105 21.9577 27.282 19.2636 28.8525ZM8.52658 12.615C9.78777 13.3399 11.0498 14.0634 12.3126 14.7855L14.2686 15.909L19.9341 12.597L14.2596 9.249L8.52658 12.615ZM8.04808 20.1735L7.94158 13.59L13.7091 16.8975L13.7001 23.466L8.04808 20.1735ZM1.16158 9.699L1.13308 24.2115L13.6941 31.4565L13.6986 24.78L11.2386 23.3475L9.69658 22.449C8.90608 21.99 8.08858 21.5145 7.28608 21.045C7.05358 20.9355 6.90808 20.6685 6.92458 20.376L6.80308 12.9375L1.16158 9.699ZM24.5991 7.296L26.8026 8.58L21.0591 11.937L14.6451 8.1555C14.4214 7.99844 14.1249 7.99251 13.8951 8.1405L7.39408 11.958L1.72708 8.7105L5.66608 6.375C8.53237 4.67362 11.4004 2.97512 14.2701 1.2795C17.1036 2.9385 19.8501 4.5345 22.1661 5.8785L24.5991 7.296ZM14.8296 23.4705C16.7243 22.3664 18.6203 21.2644 20.5176 20.1645V13.575L14.8341 16.896L14.8296 23.4705ZM22.3461 22.3065C22.405 22.3067 22.4637 22.2982 22.5201 22.281C22.7233 22.2326 22.8901 22.0882 22.9671 21.894C23.0801 21.6409 23.0343 21.3451 22.8501 21.138L22.8486 21.135C22.7181 20.9895 22.5381 20.9055 22.3536 20.9055C22.0274 20.9107 21.7518 21.149 21.6996 21.471C21.6502 21.714 21.7329 21.965 21.9171 22.131C22.0302 22.2455 22.1851 22.3089 22.3461 22.3065ZM25.6161 24.393C25.4382 24.2543 25.3414 24.0359 25.3581 23.811C25.3701 23.5725 25.4931 23.361 25.6911 23.241C25.7893 23.1769 25.9038 23.1425 26.0211 23.142C26.1501 23.142 26.2761 23.1825 26.3871 23.2575C26.6142 23.4065 26.7328 23.6748 26.6901 23.943C26.6493 24.2846 26.3606 24.5424 26.0166 24.5445C25.8692 24.544 25.7269 24.4902 25.6161 24.393ZM6.32308 21.147C6.19858 20.9985 6.02008 20.913 5.83258 20.913C5.50941 20.9197 5.23462 21.1508 5.17258 21.468C5.12783 21.6664 5.17373 21.8745 5.29781 22.0357C5.4219 22.1969 5.61129 22.2945 5.81458 22.302C6.08732 22.3064 6.33493 22.1433 6.43858 21.891C6.5507 21.642 6.50541 21.3503 6.32308 21.147ZM23.7666 23.277C23.5728 23.1148 23.4807 22.8613 23.5251 22.6125C23.5753 22.2851 23.851 22.0395 24.1821 22.0275C24.3471 22.0275 24.5061 22.0935 24.6321 22.2105C24.8226 22.3875 24.9021 22.644 24.8391 22.884C24.7965 23.1133 24.6355 23.3029 24.4161 23.382C24.1966 23.4677 23.9479 23.4275 23.7666 23.277ZM4.65058 22.863C4.70158 22.62 4.60858 22.3575 4.40908 22.1925C4.28608 22.0845 4.14058 22.0275 3.99058 22.0275C3.91063 22.0276 3.83153 22.0439 3.75808 22.0755C3.51083 22.1688 3.34119 22.3983 3.32458 22.662C3.29591 22.929 3.42234 23.1888 3.65008 23.331C3.74981 23.3941 3.86507 23.4284 3.98308 23.43C4.08173 23.4288 4.17895 23.4063 4.26808 23.364H4.26958C4.47387 23.2731 4.61757 23.0842 4.65058 22.863ZM14.1753 1.7505C14.3699 1.75086 14.5539 1.83481 14.6841 1.9815C14.8446 2.151 14.9046 2.3865 14.8446 2.6115C14.7849 2.87825 14.5662 3.08017 14.2956 3.1185H14.2881C14.0105 3.17305 13.7277 3.05304 13.5741 2.8155C13.4453 2.61689 13.4299 2.36531 13.5336 2.1525L13.5351 2.1495C13.6335 1.9386 13.8324 1.79224 14.0631 1.761C14.1001 1.75418 14.1377 1.75067 14.1753 1.7505ZM14.1753 1.7505L14.1741 1.7505H14.1756L14.1753 1.7505ZM2.82358 23.82C2.82508 23.58 2.69308 23.358 2.47558 23.235C2.27632 23.1147 2.02684 23.1147 1.82758 23.235C1.61458 23.355 1.48108 23.5905 1.48108 23.85C1.477 24.1037 1.61311 24.339 1.83508 24.462C1.92796 24.516 2.03366 24.544 2.14108 24.543C2.27119 24.5418 2.39822 24.5033 2.50708 24.432C2.71561 24.3004 2.83667 24.0663 2.82358 23.82ZM14.5356 6.3075C14.7513 6.44171 14.8753 6.68402 14.8581 6.9375C14.841 7.18906 14.6829 7.40925 14.4501 7.506C14.3559 7.54897 14.2536 7.57147 14.1501 7.572C13.9963 7.57364 13.8466 7.52285 13.7256 7.428C13.5378 7.28912 13.4365 7.06202 13.4586 6.8295C13.4715 6.59888 13.6041 6.3918 13.8081 6.2835C13.9112 6.22415 14.0281 6.1931 14.1471 6.1935C14.2853 6.19327 14.4207 6.23285 14.5371 6.3075H14.5356ZM13.4586 4.6095C13.4383 4.82129 13.5209 5.02995 13.6806 5.1705C13.8058 5.28981 13.9726 5.35548 14.1456 5.3535C14.2491 5.35292 14.3514 5.33043 14.4456 5.2875C14.6936 5.18327 14.8557 4.94148 14.8581 4.6725C14.8658 4.41745 14.7288 4.17993 14.5041 4.059L14.5026 4.0575C14.3931 3.999 14.2731 3.9675 14.1531 3.9675C14.0229 3.96676 13.8955 4.00489 13.7871 4.077C13.6003 4.19123 13.4785 4.38699 13.4586 4.605V4.6095Z" fill="white"/>
</svg>