<svg width="36" height="40" viewBox="0 0 36 40" fill="none" xmlns="http://www.w3.org/2000/svg">
<path d="M21 1.73205L32.3205 8.26795C34.1769 9.33975 35.3205 11.3205 35.3205 13.4641V26.5359C35.3205 28.6795 34.1769 30.6603 32.3205 31.732L21 38.2679C19.1436 39.3397 16.8564 39.3397 15 38.2679L3.6795 31.732C1.8231 30.6603 0.679504 28.6795 0.679504 26.5359V13.4641C0.679504 11.3205 1.8231 9.33975 3.6795 8.26795L15 1.73205C16.8564 0.660254 19.1436 0.660254 21 1.73205Z" fill="#624DBF"/>
<path style="mix-blend-mode:overlay" d="M21 1.73205L32.3205 8.26795C34.1769 9.33975 35.3205 11.3205 35.3205 13.4641V26.5359C35.3205 28.6795 34.1769 30.6603 32.3205 31.732L21 38.2679C19.1436 39.3397 16.8564 39.3397 15 38.2679L3.6795 31.732C1.8231 30.6603 0.679504 28.6795 0.679504 26.5359V13.4641C0.679504 11.3205 1.8231 9.33975 3.6795 8.26795L15 1.73205C16.8564 0.660254 19.1436 0.660254 21 1.73205Z" fill="url(#paint0_linear)"/>
<path fill-rule="evenodd" clip-rule="evenodd" d="M6.52421 24.6454C6.90996 26.4172 7.93744 27.638 9.66554 28.223C10.8519 28.6246 12.0858 28.7807 13.3257 28.8707C14.1509 28.9306 14.9805 28.9473 15.8083 28.9506C19.1437 28.9641 22.4793 28.9821 25.8144 28.9122C26.5216 28.8974 27.2244 28.8128 27.9084 28.6106C28.7494 28.362 29.2002 27.7292 29.1527 26.854C29.1231 26.3075 28.7482 25.8478 28.223 25.7197C27.9973 25.6646 27.7667 25.6484 27.5344 25.6472C23.2376 25.6254 18.9405 25.6989 14.6441 25.6004C13.8428 25.582 13.0508 25.4574 12.2815 25.2243C11.5513 25.003 11.0028 24.559 10.7187 23.83C10.4339 23.0994 10.4169 22.3247 10.3723 21.5558C10.3651 21.4325 10.4414 21.3721 10.554 21.3615C10.6461 21.3529 10.7395 21.357 10.8323 21.357C13.6176 21.3569 16.403 21.3569 19.1883 21.3569C21.8344 21.3569 24.4804 21.3569 27.1265 21.3569C27.4443 21.3568 27.7612 21.3535 28.0787 21.3199C28.6426 21.2603 29.0584 20.919 29.1082 20.4359C29.141 20.1185 29.1661 19.8 29.1553 19.4795C29.1451 19.1719 29.0428 18.909 28.8209 18.6946C28.5368 18.4201 28.1931 18.3215 27.8057 18.3216C22.235 18.3237 16.6643 18.323 11.0936 18.3232C10.9742 18.3232 10.8542 18.2979 10.738 18.3006C10.4572 18.3071 10.3519 18.1143 10.3796 17.8239C10.4024 17.5857 10.4208 17.3469 10.4513 17.1097C10.5223 16.5573 10.6529 16.0232 10.9804 15.5597C11.4154 14.9438 12.0606 14.6873 12.7564 14.5168C13.7421 14.2752 14.7488 14.2485 15.7539 14.2427C18.0086 14.2295 20.2635 14.2443 22.5182 14.2347C24.2684 14.2273 26.019 14.2742 27.7685 14.1964C28.4754 14.1649 28.9118 13.9545 29.058 13.2643C29.0786 13.1671 29.0888 13.0673 29.0986 12.9682C29.1733 12.2158 28.9263 11.664 28.195 11.3796C28.0967 11.3414 27.995 11.3089 27.8923 11.2851C27.1559 11.1145 26.4064 11.0129 25.654 11.009C22.7162 10.994 19.7783 11.0019 16.8403 11.0035C15.3774 11.0043 13.9148 10.9733 12.456 11.1561C11.455 11.2815 10.4684 11.4472 9.52416 11.8136C8.0816 12.3734 7.09622 13.3719 6.64032 14.8728C6.35644 15.8074 6.23516 16.7722 6.20718 17.741C6.17006 19.0265 6.21188 20.3142 6.19361 21.6005C6.17893 22.6314 6.30623 23.6444 6.52421 24.6454Z" fill="white"/>
<defs>
<linearGradient id="paint0_linear" x1="10.3063" y1="5.5099" x2="28.659" y2="32.7678" gradientUnits="userSpaceOnUse">
<stop stop-color="white" stop-opacity="0.5"/>
<stop offset="1" stop-color="white" stop-opacity="0"/>
</linearGradient>
</defs>
</svg>
