<svg width="36" height="40" viewBox="0 0 36 40" fill="none" xmlns="http://www.w3.org/2000/svg">
<path d="M21 1.73205L32.3205 8.26795C34.1769 9.33975 35.3205 11.3205 35.3205 13.4641V26.5359C35.3205 28.6795 34.1769 30.6603 32.3205 31.732L21 38.2679C19.1436 39.3397 16.8564 39.3397 15 38.2679L3.6795 31.732C1.8231 30.6603 0.679504 28.6795 0.679504 26.5359V13.4641C0.679504 11.3205 1.8231 9.33975 3.6795 8.26795L15 1.73205C16.8564 0.660254 19.1436 0.660254 21 1.73205Z" fill="#627EEA"/>
<path style="mix-blend-mode:overlay" d="M21 1.73205L32.3205 8.26795C34.1769 9.33975 35.3205 11.3205 35.3205 13.4641V26.5359C35.3205 28.6795 34.1769 30.6603 32.3205 31.732L21 38.2679C19.1436 39.3397 16.8564 39.3397 15 38.2679L3.6795 31.732C1.8231 30.6603 0.679504 28.6795 0.679504 26.5359V13.4641C0.679504 11.3205 1.8231 9.33975 3.6795 8.26795L15 1.73205C16.8564 0.660254 19.1436 0.660254 21 1.73205Z" fill="url(#paint0_linear)"/>
<path d="M18.1765 7.14286V16.6464L26.209 20.2357L18.1765 7.14286Z" fill="white" fill-opacity="0.602"/>
<path d="M18.1765 7.14286L10.1429 20.2357L18.1765 16.6464V7.14286Z" fill="white"/>
<path d="M18.1765 26.3943V32.8518L26.2143 21.7314L18.1765 26.3943Z" fill="white" fill-opacity="0.602"/>
<path d="M18.1765 32.8518V26.3932L10.1429 21.7314L18.1765 32.8518Z" fill="white"/>
<path d="M18.1765 24.8996L26.209 20.2357L18.1765 16.6486V24.8996Z" fill="white" fill-opacity="0.2"/>
<path d="M10.1429 20.2357L18.1765 24.8996V16.6486L10.1429 20.2357Z" fill="white" fill-opacity="0.602"/>
<defs>
<linearGradient id="paint0_linear" x1="10.3063" y1="5.5099" x2="28.659" y2="32.7678" gradientUnits="userSpaceOnUse">
<stop stop-color="white" stop-opacity="0.5"/>
<stop offset="1" stop-color="white" stop-opacity="0"/>
</linearGradient>
</defs>
</svg>
