<svg width="36" height="40" viewBox="0 0 36 40" fill="none" xmlns="http://www.w3.org/2000/svg">
<path d="M21 1.73205L32.3205 8.26795C34.1769 9.33974 35.3205 11.3205 35.3205 13.4641V26.5359C35.3205 28.6795 34.1769 30.6602 32.3205 31.732L21 38.2679C19.1436 39.3397 16.8564 39.3397 15 38.2679L3.67949 31.732C1.82308 30.6602 0.679489 28.6795 0.679489 26.5359V13.4641C0.679489 11.3205 1.82308 9.33974 3.67949 8.26795L15 1.73205C16.8564 0.660251 19.1436 0.660251 21 1.73205Z" fill="#FBAF12"/>
<path style="mix-blend-mode:overlay" d="M21 1.73205L32.3205 8.26795C34.1769 9.33974 35.3205 11.3205 35.3205 13.4641V26.5359C35.3205 28.6795 34.1769 30.6602 32.3205 31.732L21 38.2679C19.1436 39.3397 16.8564 39.3397 15 38.2679L3.67949 31.732C1.82308 30.6602 0.679489 28.6795 0.679489 26.5359V13.4641C0.679489 11.3205 1.82308 9.33974 3.67949 8.26795L15 1.73205C16.8564 0.660251 19.1436 0.660251 21 1.73205Z" fill="url(#paint0_linear)"/>
<path d="M14.3042 18.1492H20.6183L22.2902 8L24.2636 8.32507L20.9734 28.2985L19 27.9734L20.2889 20.1492H13.9747L11.9734 32.2985L10 31.9734L13.2902 12L15.2636 12.3251L14.3042 18.1492Z" fill="white"/>
<defs>
<linearGradient id="paint0_linear" x1="10.3063" y1="5.5099" x2="28.6589" y2="32.7678" gradientUnits="userSpaceOnUse">
<stop stop-color="white" stop-opacity="0.5"/>
<stop offset="1" stop-color="white" stop-opacity="0"/>
</linearGradient>
</defs>
</svg>
