<?xml version="1.0" encoding="UTF-8"?>
<svg width="20px" height="20px" viewBox="0 0 20 20" version="1.1" xmlns="http://www.w3.org/2000/svg" xmlns:xlink="http://www.w3.org/1999/xlink">
    <!-- Generator: Sketch 54.1 (76490) - https://sketchapp.com -->
    <title>Shape</title>
    <desc>Created with Sketch.</desc>
    <g id="Homepage" stroke="none" stroke-width="1" fill="none" fill-rule="evenodd" opacity="0.59858631">
        <g id="Homepage-Dark" transform="translate(-1006.000000, -1788.000000)" fill="#FFFFFF">
            <g id="FOOTER" transform="translate(0.000000, 1653.000000)">
                <g id="Group-2" transform="translate(830.000000, 122.000000)">
                    <g id="Group-Copy-3" transform="translate(162.994975, 0.000000)">
                        <path d="M13.5829146,23.2414475 C13.5829146,27.5522839 16.3298936,31.2101449 20.1398775,32.5005203 C20.6195835,32.5903793 20.7943966,32.2890521 20.7943966,32.0302581 C20.7943966,31.7984219 20.7861563,31.1849843 20.7814475,30.3708617 C18.1145176,30.9603368 17.5518195,29.0625144 17.5518195,29.0625144 C17.1156697,27.9350833 16.4870488,27.6349542 16.4870488,27.6349542 C15.6165148,27.0293045 16.5529716,27.0418847 16.5529716,27.0418847 C17.5153266,27.1107767 18.0215194,28.0477066 18.0215194,28.0477066 C18.8773384,29.5387672 20.2658372,29.108043 20.8120545,28.8582349 C20.8991668,28.2274247 21.1469658,27.7978986 21.4206631,27.5534821 C19.2917102,27.3072684 17.0532785,26.4703814 17.0532785,22.7310483 C17.0532785,21.6653204 17.4270371,20.794287 18.0403545,20.1119576 C17.9420589,19.8651448 17.6130336,18.8731013 18.1345299,17.5300086 C18.1345299,17.5300086 18.9397296,17.2670212 20.7708528,18.5298399 C21.536028,18.3135792 22.3559427,18.2051493 23.1711486,18.201555 C23.9857659,18.2051493 24.8056805,18.3135792 25.5720329,18.5298399 C27.4019789,17.2670212 28.2060015,17.5300086 28.2060015,17.5300086 C28.728675,18.8731013 28.3996496,19.8651448 28.3013541,20.1119576 C28.9158486,20.794287 29.2866643,21.6653204 29.2866643,22.7310483 C29.2866643,26.4793673 27.0452895,27.3042731 24.9092735,27.5462933 C25.2536023,27.8476206 25.5596724,28.4430863 25.5596724,29.3530586 C25.5596724,30.6578115 25.5484891,31.71036 25.5484891,32.0302581 C25.5484891,32.2914483 25.7209478,32.5945727 26.207717,32.4993222 C30.0141693,31.2065505 32.758794,27.5516849 32.758794,23.2414475 C32.758794,17.8517039 28.4655724,13.4827586 23.1699714,13.4827586 C17.8761361,13.4827586 13.5829146,17.8517039 13.5829146,23.2414475 Z" id="Shape"></path>
                    </g>
                </g>
            </g>
        </g>
    </g>
</svg>