<?xml version="1.0" encoding="UTF-8"?>
<svg width="19px" height="18px" viewBox="0 0 19 18" version="1.1" xmlns="http://www.w3.org/2000/svg" xmlns:xlink="http://www.w3.org/1999/xlink">
    <!-- Generator: Sketch 54.1 (76490) - https://sketchapp.com -->
    <title>Shape</title>
    <desc>Created with Sketch.</desc>
    <g id="Homepage" stroke="none" stroke-width="1" fill="none" fill-rule="evenodd" opacity="0.59858631">
        <g id="Homepage-Dark" transform="translate(-1061.000000, -1789.000000)" fill="#FFFFFF">
            <g id="FOOTER" transform="translate(0.000000, 1653.000000)">
                <g id="Group-2" transform="translate(830.000000, 122.000000)">
                    <g id="Group-Copy-4" transform="translate(217.326633, 0.000000)">
                        <path d="M23.1708368,15.8478106 C25.5175976,15.8478106 25.7955485,15.856676 26.7223073,15.8986482 C27.5792207,15.9374691 28.0445887,16.0795927 28.3543223,16.1990334 C28.7645327,16.3572948 29.0573458,16.5463775 29.3648815,16.8516455 C29.6724172,17.1569136 29.8629044,17.4475675 30.0223066,17.8547532 C30.1426694,18.1622029 30.2858489,18.6241394 30.324958,19.4746996 C30.367242,20.3946594 30.3761733,20.6705608 30.3761733,23.0000173 C30.3761733,25.3294739 30.367242,25.6053752 30.324958,26.5253004 C30.2858489,27.3758952 30.1426694,27.8378317 30.0223066,28.1452815 C29.8629044,28.5524671 29.6724172,28.8431211 29.3648815,29.1483891 C29.0573458,29.4536571 28.7645327,29.6427398 28.3543223,29.8009666 C28.0445887,29.9204419 27.5792207,30.0625656 26.7223073,30.1013864 C25.7956881,30.1433586 25.5177372,30.152224 23.1708368,30.152224 C20.8239365,30.152224 20.5459856,30.1433586 19.6193664,30.1013864 C18.762453,30.0625656 18.297085,29.9204419 17.9873862,29.8009666 C17.5771409,29.6427398 17.2843279,29.4536571 16.9767922,29.1483891 C16.6692565,28.8431211 16.4787693,28.5524671 16.319367,28.1452815 C16.1990042,27.8378317 16.0558248,27.3758952 16.0167156,26.525335 C15.9744316,25.6053752 15.9655004,25.3294739 15.9655004,23.0000173 C15.9655004,20.6705608 15.9744316,20.3946594 16.0167156,19.4747343 C16.0558248,18.6241394 16.1990042,18.1622029 16.319367,17.8547532 C16.4787693,17.4475675 16.6692565,17.1569136 16.9767922,16.8516455 C17.2843279,16.5463775 17.5771409,16.3572948 17.9873862,16.1990334 C18.297085,16.0795927 18.762453,15.9374691 19.6193315,15.8986482 C20.5461251,15.856676 20.824076,15.8478106 23.1708368,15.8478106 M23.1708368,14.2758621 C25.5577883,14.2758621 25.8570905,14.2859049 26.7944901,14.3283619 C27.7300056,14.3707497 28.3688705,14.5182064 28.927947,14.7338853 C29.5058978,14.9568366 29.9960361,15.2551439 30.4846394,15.7401443 C30.9732426,16.2251448 31.2737659,16.711669 31.4983733,17.2853582 C31.7156544,17.8403122 31.8642065,18.4744663 31.9069091,19.4030837 C31.9496815,20.3335712 31.959799,20.6306664 31.959799,23.0000173 C31.959799,25.3693682 31.9496815,25.6664635 31.9069091,26.5969509 C31.8642065,27.5255683 31.7156544,28.1597224 31.4983733,28.7146765 C31.2737659,29.2883657 30.9732426,29.7748898 30.4846394,30.2598903 C29.9960361,30.7448907 29.5058978,31.043198 28.927947,31.2661493 C28.3688705,31.4818282 27.7300056,31.6292849 26.7944901,31.6716727 C25.8570905,31.7141297 25.5577883,31.7241379 23.1708368,31.7241379 C20.7838853,31.7241379 20.484618,31.7141297 19.5471836,31.6716727 C18.611668,31.6292849 17.9728032,31.4818282 17.4137266,31.2661493 C16.8357758,31.043198 16.3456375,30.7448907 15.8570343,30.2598903 C15.368431,29.7748898 15.0679078,29.288331 14.8433003,28.7146765 C14.6260193,28.1597224 14.4774672,27.5255683 14.4347645,26.5969509 C14.3919921,25.6664635 14.3819095,25.3693682 14.3819095,23.0000173 C14.3819095,20.6306664 14.3919921,20.3335712 14.4347645,19.4030837 C14.4774672,18.4744663 14.6260193,17.8403122 14.8433003,17.2853582 C15.0679078,16.711669 15.368431,16.2251448 15.8570343,15.7401443 C16.3456375,15.2551439 16.8357758,14.9568366 17.4137266,14.7338853 C17.9728032,14.5182064 18.611668,14.3707497 19.5471836,14.3283619 C20.484618,14.2859049 20.7838853,14.2758621 23.1708368,14.2758621 Z M23.1882927,18.5340722 C20.693887,18.5340722 18.6717516,20.541297 18.6717516,23.0173098 C18.6717516,25.4933226 20.693887,27.5005473 23.1882927,27.5005473 C25.6826983,27.5005473 27.7048337,25.4933226 27.7048337,23.0173098 C27.7048337,20.541297 25.6826983,18.5340722 23.1882927,18.5340722 Z M23.1882927,25.9274894 C21.569125,25.9274894 20.2564949,24.6245382 20.2564949,23.0173098 C20.2564949,21.4100814 21.569125,20.1071302 23.1882927,20.1071302 C24.8074603,20.1071302 26.1200904,21.4100814 26.1200904,23.0173098 C26.1200904,24.6245382 24.8074603,25.9274894 23.1882927,25.9274894 Z M28.8906437,18.3263375 C28.8906437,17.7527359 28.4222206,17.2877668 27.8443581,17.2877668 C27.2664955,17.2877668 26.7980378,17.7527359 26.7980378,18.3263375 C26.7980378,18.8999391 27.2664955,19.3649425 27.8443581,19.3649425 C28.4222206,19.3649425 28.8906437,18.8999391 28.8906437,18.3263375 Z" id="Shape"></path>
                    </g>
                </g>
            </g>
        </g>
    </g>
</svg>