<?xml version="1.0" encoding="UTF-8"?>
<svg width="17px" height="16px" viewBox="0 0 17 16" version="1.1" xmlns="http://www.w3.org/2000/svg" xmlns:xlink="http://www.w3.org/1999/xlink">
    <!-- Generator: Sketch 54.1 (76490) - https://sketchapp.com -->
    <title>Shape</title>
    <desc>Created with Sketch.</desc>
    <g id="Homepage" stroke="none" stroke-width="1" fill="none" fill-rule="evenodd" opacity="0.59858631">
        <g id="Homepage-Dark" transform="translate(-953.000000, -1790.000000)" fill="#FFFFFF">
            <g id="FOOTER" transform="translate(0.000000, 1653.000000)">
                <g id="Group-2" transform="translate(830.000000, 122.000000)">
                    <g id="Group-Copy-2" transform="translate(108.663317, 0.000000)">
                        <path d="M15.5839723,20.1552276 L18.698587,20.1552276 L18.698587,30.9300189 L15.5839723,30.9300189 L15.5839723,20.1552276 Z M17.0618875,18.80749 L17.0393383,18.80749 C15.9118759,18.80749 15.1809045,17.9838162 15.1809045,16.9407668 C15.1809045,15.8763893 15.9334856,15.0689655 17.0834972,15.0689655 C18.2325692,15.0689655 18.9391123,15.8743581 18.9616616,16.93772 C18.9616616,17.9807693 18.2325692,18.80749 17.0618875,18.80749 L17.0618875,18.80749 Z M31.160804,30.9310345 L27.6290283,30.9310345 L27.6290283,25.3542243 C27.6290283,23.8947678 27.0765717,22.8994529 25.861731,22.8994529 C24.9325142,22.8994529 24.4157606,23.5707826 24.1752353,24.2197685 C24.0850383,24.4513316 24.0991316,24.7753167 24.0991316,25.1003175 L24.0991316,30.9310345 L20.6002401,30.9310345 C20.6002401,30.9310345 20.6453386,21.0530422 20.6002401,20.1552276 L24.0991316,20.1552276 L24.0991316,21.8462473 C24.305833,21.1068705 25.4238998,20.0516336 27.208109,20.0516336 C29.4216934,20.0516336 31.160804,21.6024967 31.160804,24.9388327 L31.160804,30.9310345 L31.160804,30.9310345 Z" id="Shape"></path>
                    </g>
                </g>
            </g>
        </g>
    </g>
</svg>