<?xml version="1.0" encoding="UTF-8"?>
<svg width="20px" height="17px" viewBox="0 0 20 17" version="1.1" xmlns="http://www.w3.org/2000/svg" xmlns:xlink="http://www.w3.org/1999/xlink">
    <!-- Generator: Sketch 54.1 (76490) - https://sketchapp.com -->
    <title>Group 4</title>
    <desc>Created with Sketch.</desc>
    <g id="Homepage" stroke="none" stroke-width="1" fill="none" fill-rule="evenodd" opacity="0.59858631">
        <g id="Homepage-Dark" transform="translate(-1113.000000, -1790.000000)" fill="#FFFFFF">
            <g id="FOOTER" transform="translate(0.000000, 1653.000000)">
                <g id="Group-2" transform="translate(830.000000, 122.000000)">
                    <g id="Group-Copy-5" transform="translate(271.658291, 0.000000)">
                        <g id="Group-4" transform="translate(11.984925, 15.068966)">
                            <path d="M7.63331531,11.2385805 L7.64877889,11.1058276 C7.64877889,11.1058276 15.4557588,4.05196552 15.7753568,3.75137931 C16.0949548,3.4507931 15.9886884,3.38655172 15.9886884,3.38655172 C16.0094623,3.02172414 15.4126131,3.38655172 15.4126131,3.38655172 L5.06802513,9.99072414 L0.761442211,8.5337931 C0.761442211,8.5337931 0.0998743719,8.29824138 0.0359547739,7.78351724 C-0.0279648241,7.2687931 0.78221608,6.99041379 0.78221608,6.99041379 L17.9094724,0.236344828 C17.9086734,0.235551724 19.3165025,-0.386241379 19.3165025,0.643206897 L16.2667387,16.1023793 C16.2667387,16.1023793 15.8400754,17.1746552 14.6671508,16.659931 L7.63331531,11.2385805 Z" id="Combined-Shape"></path>
                            <path d="M10.3270101,13.3146207 L7.54331156,15.8660345 C7.54331156,15.8660345 7.32598492,16.0317931 7.08788442,15.9278966 L7.62081407,11.1883103" id="Path"></path>
                        </g>
                    </g>
                </g>
            </g>
        </g>
    </g>
</svg>