<?xml version="1.0" encoding="UTF-8"?>
<svg width="17px" height="15px" viewBox="0 0 17 15" version="1.1" xmlns="http://www.w3.org/2000/svg" xmlns:xlink="http://www.w3.org/1999/xlink">
    <!-- Generator: Sketch 54.1 (76490) - https://sketchapp.com -->
    <title>Shape</title>
    <desc>Created with Sketch.</desc>
    <g id="Homepage" stroke="none" stroke-width="1" fill="none" fill-rule="evenodd" opacity="0.6">
        <g id="Homepage-Dark" transform="translate(-845.000000, -1791.000000)" fill="#FFFFFF">
            <g id="FOOTER" transform="translate(0.000000, 1653.000000)">
                <g id="Group-2" transform="translate(830.000000, 122.000000)">
                    <g id="Group">
                        <path d="M29.9832045,18.912132 C30.6942664,18.4667201 31.2398734,17.7604537 31.4959345,16.9191202 C30.8301757,17.3325696 30.0944925,17.6315729 29.3095669,17.7934471 C28.6832021,17.0923359 27.7879731,16.6551724 26.7972137,16.6551724 C24.8964527,16.6551724 23.3561468,18.2687593 23.3561468,20.258678 C23.3561468,20.5411846 23.3847075,20.8164738 23.4437985,21.0793905 C20.5837932,20.9288578 18.0478037,19.495704 16.348937,17.3140108 C16.052497,17.8480926 15.8831028,18.4667201 15.8831028,19.1265895 C15.8831028,20.3762172 16.4907554,21.4794364 17.414545,22.1269332 C16.8502258,22.1083744 16.3193915,21.9444381 15.8545421,21.6763661 L15.8545421,21.7207011 C15.8545421,23.4672929 17.0403019,24.9241608 18.6170472,25.2540955 C18.3275012,25.3386413 18.0241673,25.3809142 17.7090152,25.3809142 C17.4874239,25.3809142 17.2707568,25.3592622 17.0619686,25.3169893 C17.4992421,26.7480811 18.7706838,27.7914996 20.2775048,27.8193378 C19.098639,28.7864589 17.6144696,29.3617826 16.0022697,29.3617826 C15.7245419,29.3617826 15.4497687,29.3463169 15.1809045,29.3122924 C16.7044679,30.3340589 18.5136379,30.9310345 20.4577324,30.9310345 C26.7903198,30.9310345 30.2510837,25.4396838 30.2510837,20.6772826 C30.2510837,20.5205636 30.249114,20.3648757 30.2422201,20.2112499 C30.9148728,19.7029442 31.4998739,19.0678199 31.959799,18.3450567 C31.3422979,18.6316875 30.6785088,18.8255241 29.9832045,18.912132 Z" id="Shape"></path>
                    </g>
                </g>
            </g>
        </g>
    </g>
</svg>