<svg width="36" height="40" viewBox="0 0 36 40" fill="none" xmlns="http://www.w3.org/2000/svg">
<path d="M21 1.73205L32.3205 8.26795C34.1769 9.33974 35.3205 11.3205 35.3205 13.4641V26.5359C35.3205 28.6795 34.1769 30.6602 32.3205 31.732L21 38.2679C19.1436 39.3397 16.8564 39.3397 15 38.2679L3.67949 31.732C1.82308 30.6602 0.679489 28.6795 0.679489 26.5359V13.4641C0.679489 11.3205 1.82308 9.33974 3.67949 8.26795L15 1.73205C16.8564 0.660251 19.1436 0.660251 21 1.73205Z" fill="#303030"/>
<path style="mix-blend-mode:overlay" d="M21 1.73205L32.3205 8.26795C34.1769 9.33974 35.3205 11.3205 35.3205 13.4641V26.5359C35.3205 28.6795 34.1769 30.6602 32.3205 31.732L21 38.2679C19.1436 39.3397 16.8564 39.3397 15 38.2679L3.67949 31.732C1.82308 30.6602 0.679489 28.6795 0.679489 26.5359V13.4641C0.679489 11.3205 1.82308 9.33974 3.67949 8.26795L15 1.73205C16.8564 0.660251 19.1436 0.660251 21 1.73205Z" fill="url(#paint0_linear)"/>
<path fill-rule="evenodd" clip-rule="evenodd" d="M18.3283 7C18.7266 7.28475 19.1637 7.50337 19.5851 7.74846C20.6178 8.34895 21.6532 8.94469 22.6885 9.54059C23.924 10.2517 25.1608 10.9604 26.3964 11.6713C27.6492 12.3919 28.9007 13.115 30.1544 13.8339C30.2962 13.9152 30.3116 13.9656 30.1577 14.0553C29.1716 14.6306 28.1884 15.2113 27.2057 15.7927C27.1092 15.8499 27.0305 15.8487 26.932 15.7915C24.9574 14.6447 22.9809 13.5013 21.0051 12.3566C20.1485 11.8604 19.2914 11.3651 18.4378 10.8637C18.3249 10.7974 18.2395 10.8012 18.1295 10.8656C16.4317 11.8581 14.7319 12.8468 13.0327 13.8368C12.7419 14.0063 12.4546 14.1821 12.1608 14.3459C12.0195 14.4247 12.0249 14.4733 12.1608 14.5517C12.7784 14.9079 13.3923 15.2702 14.0081 15.6292C14.4585 15.8918 14.9118 16.1495 15.3596 16.4164C15.4586 16.4754 15.5313 16.472 15.6292 16.4138C16.1339 16.1132 16.646 15.8253 17.149 15.5221C17.2748 15.4463 17.3642 15.4513 17.4892 15.5247C18.3713 16.0427 19.2587 16.5515 20.1442 17.0637C20.2 17.096 20.2801 17.1132 20.2879 17.1874C20.2967 17.271 20.21 17.284 20.1564 17.3156C19.6793 17.598 19.2035 17.8827 18.7218 18.157C18.5741 18.2412 18.568 18.2928 18.7162 18.3779C19.2829 18.7032 19.8483 19.0309 20.4107 19.3636C20.5279 19.4329 20.6214 19.4276 20.737 19.3579C21.1212 19.1261 21.5133 18.9075 21.8987 18.6773C22.0147 18.608 22.1129 18.6102 22.2283 18.6776C23.1291 19.2031 24.0312 19.726 24.9351 20.2461C25.0861 20.333 25.0506 20.3904 24.9269 20.4621C24.5443 20.6837 24.1652 20.9116 23.7813 21.1311C23.6631 21.1987 23.6279 21.2382 23.7729 21.3223C24.9151 21.984 26.0543 22.6509 27.1944 23.3162C28.1864 23.8949 29.1783 24.4736 30.1705 25.0519C30.3986 25.1849 30.6288 25.314 30.856 25.4485C31.0459 25.5608 31.0472 25.581 30.8644 25.6882C29.7374 26.3498 28.6102 27.0109 27.4816 27.6697C26.1534 28.4451 24.8241 29.2183 23.4949 29.9919C21.9717 30.8783 20.448 31.764 18.9248 32.6503C18.748 32.7532 18.5708 32.8557 18.397 32.9636C18.3206 33.011 18.255 33.0121 18.1769 32.9669C17.2458 32.4281 16.3138 31.891 15.3815 31.3544C14.0774 30.604 12.7723 29.8552 11.4684 29.1042C10.3189 28.4421 9.17057 27.7778 8.02151 27.1149C7.07263 26.5674 6.12458 26.0185 5.17302 25.4759C5.04869 25.405 4.99727 25.326 5.00011 25.1777C5.02122 24.0809 5.03324 22.9839 5.04885 21.887C5.05233 21.6437 5.0887 21.6238 5.29674 21.7439C7.17699 22.8298 9.05735 23.9157 10.9377 25.0014C13.0639 26.2291 15.1903 27.4567 17.3164 28.6847C17.585 28.8397 17.8551 28.9924 18.1189 29.1554C18.2285 29.2232 18.319 29.2235 18.4291 29.159C19.1408 28.7416 19.8558 28.3299 20.5684 27.9142C21.8454 27.1693 23.1215 26.423 24.3977 25.6767C24.5712 25.5752 24.5715 25.5657 24.3918 25.461C23.3369 24.8461 22.2814 24.2322 21.226 23.6182C20.9864 23.4788 20.7435 23.3449 20.5078 23.1991C20.4096 23.1384 20.3342 23.1431 20.2368 23.2017C19.8069 23.4601 19.3703 23.7072 18.9411 23.9667C18.8238 24.0377 18.7318 24.0346 18.6148 23.9658C17.7271 23.4443 16.8358 22.929 15.9462 22.4107C15.892 22.3791 15.8087 22.3644 15.8149 22.281C15.8199 22.2139 15.8917 22.1965 15.9417 22.1672C16.3516 21.9269 16.7605 21.6847 17.1731 21.449C17.2918 21.3812 17.3253 21.3381 17.1818 21.2565C16.6081 20.9304 16.0362 20.6011 15.4683 20.2648C15.3454 20.192 15.2518 20.1851 15.1268 20.2626C14.8127 20.4571 14.4874 20.6331 14.1697 20.8219C14.0738 20.8789 13.9956 20.88 13.8966 20.8224C12.9954 20.2977 12.0908 19.779 11.1887 19.2559C10.9977 19.1451 10.9979 19.1295 11.186 19.0159C11.4799 18.8385 11.7733 18.6597 12.0752 18.4972C12.2388 18.4091 12.2103 18.3599 12.0742 18.2816C11.5135 17.9592 10.955 17.6329 10.3961 17.3071C9.10179 16.5527 7.80757 15.7979 6.5136 15.0428C6.23428 14.8798 5.95769 14.7117 5.67631 14.5524C5.53017 14.4696 5.55254 14.4128 5.68248 14.3376C6.36216 13.9443 7.03927 13.5466 7.71784 13.1513C9.02391 12.3907 10.3303 11.6306 11.6367 10.8704C13.1769 9.97407 14.7198 9.08228 16.2564 8.17951C16.9219 7.78853 17.6014 7.42151 18.2492 7H18.3283Z" fill="white"/>
<defs>
<linearGradient id="paint0_linear" x1="10.3063" y1="5.5099" x2="28.6589" y2="32.7678" gradientUnits="userSpaceOnUse">
<stop stop-color="white" stop-opacity="0.5"/>
<stop offset="1" stop-color="white" stop-opacity="0"/>
</linearGradient>
</defs>
</svg>
