<svg viewBox="0 0 26 25" fill="none" xmlns="http://www.w3.org/2000/svg">
    <path fillRule="evenodd" clipRule="evenodd" d="M18.7848 3.3544C18.7342 3.36021 18.6834 3.36306 18.6325 3.36295C17.9015 3.36201 17.2891 2.80937 17.2133 2.08227C17.1966 1.91974 17.2071 1.75555 17.2446 1.59651C17.387 1.0082 17.8833 0.572557 18.4851 0.507564C18.5355 0.50296 18.5868 0.5 18.6368 0.5C19.3965 0.502714 20.0217 1.0985 20.061 1.85719C20.1004 2.61588 19.5401 3.27313 18.7848 3.3544ZM9.01289 4.63048C9.37459 4.64812 9.71127 4.44603 9.8658 4.11853C10.0203 3.79103 9.96226 3.40267 9.71868 3.13471C9.56207 2.95905 9.34108 2.85419 9.10597 2.84397H9.06223C8.58799 2.85048 8.19833 3.22024 8.167 3.69348C8.14294 4.18542 8.52106 4.60427 9.01289 4.63048ZM11.6164 4.59496C11.4794 4.6349 11.3341 4.63626 11.1964 4.59891C10.7909 4.4792 10.5554 4.05742 10.6662 3.64941C10.7699 3.32096 11.0736 3.09686 11.418 3.09458C11.4839 3.0942 11.5494 3.10317 11.6127 3.12122C11.9404 3.21599 12.1662 3.51563 12.1671 3.85673C12.1679 4.19784 11.9436 4.49858 11.6164 4.59496ZM13.0016 4.98239C13.0988 5.03636 13.2081 5.06487 13.3193 5.06527C13.3825 5.06563 13.4454 5.05632 13.5058 5.03764C13.6713 4.98983 13.8107 4.87748 13.8926 4.72586C14.0683 4.40874 13.9543 4.00923 13.6377 3.8326C13.5445 3.78249 13.4402 3.7567 13.3345 3.75762C13.0928 3.75572 12.8684 3.88234 12.7451 4.09012C12.5732 4.40776 12.6873 4.80456 13.0016 4.98239ZM14.4247 5.64773C14.3135 5.54939 14.2468 5.41023 14.2399 5.26194C14.2309 5.11208 14.283 4.96497 14.3843 4.85412C14.4928 4.73601 14.6465 4.66965 14.8069 4.67159C14.9436 4.66989 15.0761 4.71859 15.1792 4.80841C15.3332 4.94212 15.4031 5.14851 15.362 5.34827C15.3209 5.54803 15.1752 5.71008 14.9809 5.77215C14.7867 5.83422 14.574 5.78665 14.4247 5.64773ZM16.0145 6.66168C15.8147 6.72013 15.5997 6.6457 15.4788 6.47619V6.47783C15.3257 6.25722 15.379 5.95445 15.5982 5.79934C15.6782 5.74385 15.7734 5.71434 15.8708 5.71482C16.0832 5.71246 16.2723 5.84868 16.3374 6.05085C16.4024 6.25302 16.3282 6.47398 16.1543 6.5959C16.1116 6.62527 16.0644 6.64749 16.0145 6.66168ZM6.51973 5.24019C5.95582 5.34081 5.41681 4.96618 5.31457 4.40256C5.26501 4.12982 5.32649 3.84858 5.48535 3.6214C5.64422 3.39423 5.88728 3.23996 6.16047 3.19292C6.72494 3.09553 7.26179 3.47324 7.3608 4.03744C7.45981 4.60163 7.08363 5.13956 6.51973 5.24019ZM15.6574 8.33144C15.8648 8.0993 15.8451 7.74303 15.6133 7.5352C15.3814 7.33468 15.0327 7.35237 14.8223 7.57533C14.6719 7.7402 14.633 7.97838 14.7233 8.18252C14.8135 8.38666 15.0158 8.51823 15.239 8.51791C15.2937 8.51783 15.348 8.51008 15.4005 8.49489C15.4999 8.46492 15.589 8.408 15.658 8.33045L15.6574 8.33144ZM14.0708 6.55545C14.2241 6.63991 14.3373 6.78193 14.3856 6.95011V6.94946C14.4336 7.11707 14.4119 7.29699 14.3254 7.44838C14.2448 7.60039 14.1059 7.71316 13.9406 7.76082C13.6851 7.83734 13.4087 7.7516 13.2414 7.54393C13.0741 7.33626 13.0491 7.04797 13.1782 6.81461C13.2996 6.60484 13.5243 6.47647 13.7666 6.47849C13.8729 6.47794 13.9776 6.50442 14.0708 6.55545ZM12.5734 6.79093C12.6283 6.59496 12.6034 6.38524 12.5043 6.20749C12.4063 6.03087 12.2419 5.90066 12.0475 5.84571C11.9834 5.82734 11.9169 5.81804 11.8502 5.81809C11.5085 5.81809 11.1924 6.05094 11.1013 6.37226C10.9856 6.7785 11.2211 7.20161 11.6274 7.31732C12.0336 7.43302 12.4567 7.1975 12.5724 6.79126L12.5734 6.79093ZM10.1545 5.85986C10.3151 6.03576 10.3981 6.26895 10.3847 6.50678L10.384 6.50579C10.3626 6.97946 9.97281 7.35274 9.49866 7.35366H9.44834C8.95604 7.32675 8.578 6.90712 8.60244 6.41469C8.62777 5.9549 9.03592 5.56715 9.49438 5.56715C9.50987 5.56682 9.52536 5.56748 9.54076 5.56912C9.77616 5.5793 9.99747 5.68414 10.1545 5.85986ZM6.77417 5.89899C6.19728 5.89609 5.72727 6.36139 5.72436 6.93827C5.72146 7.51516 6.18676 7.98517 6.76364 7.98808C6.86884 7.98807 6.97351 7.97301 7.07444 7.94335C7.57103 7.79436 7.88327 7.30377 7.80798 6.7908C7.73268 6.27784 7.29263 5.89767 6.77417 5.89768V5.89899ZM3.78459 9.44241C3.29589 9.44087 2.85552 9.14712 2.66638 8.6965H2.66506V8.69354C2.40245 8.07236 2.69312 7.3559 3.31429 7.09327C3.93547 6.83064 4.65193 7.12129 4.91458 7.74246C5.17722 8.36363 4.88659 9.0801 4.26542 9.34276C4.22003 9.36184 4.17358 9.37831 4.1263 9.39209C4.01545 9.42539 3.90034 9.44234 3.78459 9.44241ZM15.289 9.56311C15.1951 9.51122 15.0895 9.48438 14.9822 9.48517C14.7417 9.4827 14.5185 9.60987 14.3981 9.818C14.223 10.1349 14.3369 10.5337 14.653 10.7103C14.8059 10.797 14.9875 10.8179 15.1562 10.7682C15.4096 10.6924 15.5931 10.4723 15.6218 10.2093C15.6505 9.94631 15.5189 9.69173 15.2877 9.56311H15.289ZM13.2412 10.3329C12.9052 10.4173 12.5543 10.2656 12.3856 9.96304H12.385C12.286 9.78409 12.2623 9.57308 12.3192 9.37664C12.4229 9.0499 12.7256 8.82745 13.0684 8.82608C13.1352 8.8257 13.2016 8.83501 13.2657 8.85371C13.5988 8.94918 13.8262 9.25632 13.8205 9.60273C13.8148 9.94913 13.5772 10.2486 13.2412 10.3329ZM11.6055 9.51148C11.6292 9.0187 11.2506 8.59925 10.758 8.57251H10.7155C10.2551 8.57251 9.84563 8.96027 9.82294 9.42005C9.79698 9.91275 10.1746 10.3336 10.6672 10.361H10.7113C10.7973 10.361 10.8828 10.3485 10.9652 10.3238C11.3284 10.2149 11.5844 9.89007 11.6055 9.51148ZM8.17489 10.98C8.1154 10.9906 8.05509 10.996 7.99466 10.9961C7.44831 10.9968 6.99427 10.5752 6.9545 10.0303C6.91474 9.48539 7.30277 9.00237 7.84344 8.92375C8.38411 8.84513 8.89363 9.19763 9.01071 9.73129C9.12779 10.265 8.81261 10.7984 8.28869 10.9533C8.25142 10.9648 8.2134 10.9737 8.17489 10.98ZM6.13777 11.6821C6.25967 11.3818 6.25671 11.0452 6.12955 10.7471C5.93168 10.298 5.48826 10.0073 4.99752 10.0048C4.8368 10.0044 4.67772 10.0371 4.53018 10.1008C4.23113 10.2249 3.99472 10.4643 3.87438 10.7649C3.72209 11.1416 3.76664 11.5693 3.99328 11.9065C4.21992 12.2437 4.59911 12.4465 5.00542 12.4478C5.12216 12.448 5.2383 12.4311 5.35009 12.3975C5.70898 12.2934 5.99968 12.0294 6.13777 11.6821ZM1.91422 12.0478C2.37204 12.0489 2.80193 12.2682 3.07157 12.6382C3.34566 13.0142 3.42006 13.4998 3.27109 13.9406C3.12212 14.3814 2.76834 14.7223 2.32236 14.8549C1.56705 15.0682 0.780716 14.6341 0.558812 13.8812C0.336909 13.1284 0.762061 12.3372 1.51232 12.1067C1.64274 12.0678 1.77811 12.048 1.91422 12.0478ZM18.4296 17.6521C18.4064 17.4013 18.1969 17.209 17.9451 17.2074C17.931 17.2071 17.917 17.2077 17.903 17.2094C17.6951 17.2286 17.5229 17.3787 17.4755 17.582C17.4636 17.633 17.4596 17.6854 17.4636 17.7376C17.4876 17.986 17.6949 18.1766 17.9445 18.1796C17.9585 18.1799 17.9726 18.1793 17.9865 18.1776C18.1148 18.1658 18.233 18.1036 18.3154 18.0046C18.3994 17.9072 18.4407 17.7802 18.4302 17.6521H18.4296ZM19.011 17.7105C18.8124 17.5817 18.716 17.3422 18.77 17.1117L18.7703 17.1124C18.815 16.9207 18.9581 16.7673 19.1462 16.7095C19.2022 16.6901 19.261 16.6802 19.3202 16.6802C19.408 16.6807 19.4944 16.7019 19.5724 16.742C19.7064 16.809 19.8071 16.9278 19.8513 17.0709C19.9225 17.2967 19.8444 17.5428 19.6561 17.6862C19.4677 17.8295 19.2096 17.8393 19.011 17.7105ZM20.1322 16.2152C20.0496 16.5652 20.2621 16.9171 20.6104 17.0068C20.6632 17.0202 20.7174 17.0269 20.7719 17.0269C20.8899 17.0269 21.0056 16.9943 21.1064 16.9328C21.4053 16.7512 21.5102 16.3283 21.3307 16.029C21.2102 15.8329 20.9968 15.7132 20.7666 15.7126C20.4644 15.7133 20.202 15.9211 20.1322 16.2152ZM22.7343 15.5301C22.5925 15.6683 22.4022 15.7455 22.2042 15.7452L22.1897 15.7449C21.7729 15.7335 21.4419 15.3904 21.4453 14.9734C21.4488 14.5564 21.7855 14.219 22.2025 14.2145C22.4087 14.2129 22.6066 14.2954 22.7505 14.4431C23.033 14.7385 23.0251 15.2469 22.7343 15.5301ZM24.2268 13.491C24.4899 13.0845 24.3686 12.5172 23.9637 12.2511C23.7662 12.1229 23.5257 12.0784 23.2954 12.1274C23.065 12.1764 22.8635 12.315 22.7353 12.5126L22.7324 12.5172C22.6776 12.6024 22.6372 12.6961 22.613 12.7944C22.5484 13.0604 22.6091 13.3413 22.7778 13.5569C22.9465 13.7724 23.2046 13.8989 23.4783 13.9001C23.7811 13.8999 24.0631 13.7458 24.2268 13.491ZM24.4222 9.35789C24.5431 9.35793 24.6631 9.37919 24.7767 9.42071V9.42235C25.3105 9.61606 25.5894 10.2166 25.3983 10.7612C25.2467 11.1736 24.8543 11.448 24.415 11.4489C24.2953 11.449 24.1765 11.4282 24.064 11.3874C23.5648 11.2046 23.282 10.6766 23.4063 10.1597C23.4149 10.122 23.4259 10.0849 23.4392 10.0485C23.5899 9.63517 23.9822 9.35952 24.4222 9.35789ZM16.1997 16.1323C16.1274 16.4343 16.3135 16.7378 16.6154 16.8104C16.6579 16.8207 16.7014 16.8259 16.745 16.8259C16.8051 16.8258 16.8649 16.8161 16.9219 16.7973C17.1346 16.7239 17.2837 16.5318 17.3021 16.3076C17.3205 16.0835 17.2046 15.8696 17.0068 15.7626L17.0025 15.7603C16.9238 15.7188 16.836 15.6972 16.747 15.6975C16.4856 15.6979 16.2588 15.8783 16.1997 16.1329V16.1323ZM18.5384 15.9474C18.3891 16.0375 18.2102 16.0649 18.0408 16.0234C17.8722 15.9809 17.7276 15.8725 17.6396 15.7225C17.5484 15.5759 17.5206 15.3986 17.5626 15.2311C17.632 14.937 17.8945 14.7293 18.1967 14.7293C18.4264 14.7283 18.6401 14.8468 18.7611 15.042C18.9413 15.3499 18.839 15.7643 18.5384 15.9474ZM19.6303 14.7612C19.8294 14.7617 20.0208 14.6843 20.1634 14.5454C20.4567 14.2458 20.4645 13.7692 20.1812 13.4601C19.9398 13.212 19.5618 13.157 19.2597 13.3259C18.9575 13.4948 18.8064 13.8456 18.8914 14.1812C18.9763 14.5168 19.276 14.7536 19.6221 14.7585L19.6303 14.7612ZM21.7747 11.8383C21.8257 12.0685 21.7831 12.3095 21.6563 12.5083V12.5093C21.5287 12.7075 21.3276 12.8469 21.0972 12.8967C21.0347 12.9101 20.971 12.9168 20.9071 12.9168C20.5806 12.9154 20.2808 12.7361 20.125 12.4492C19.9693 12.1623 19.9822 11.8133 20.1588 11.5387C20.3513 11.2313 20.7121 11.0728 21.0687 11.1389C21.4253 11.205 21.7052 11.4824 21.7747 11.8383ZM21.4948 10.4028C22.0348 10.5883 22.6239 10.3065 22.8183 9.76955C23.0128 9.23265 22.7408 8.63901 22.2071 8.43569C21.9472 8.34132 21.6604 8.35416 21.4098 8.47136C21.1593 8.58856 20.9657 8.80053 20.8715 9.06058C20.8585 9.09865 20.8475 9.1374 20.8386 9.17667C20.7159 9.69262 20.9985 10.2188 21.4964 10.4014L21.4948 10.4028ZM22.246 7.41022C22.1961 7.4105 22.1463 7.40731 22.097 7.40069C21.7767 7.36418 21.4845 7.20038 21.2863 6.94617C21.0836 6.69 20.9925 6.36314 21.0333 6.0391C21.0395 5.99023 21.0482 5.94171 21.0593 5.89373C21.1899 5.34615 21.6804 4.96066 22.2433 4.96331C22.2933 4.9637 22.3433 4.96688 22.393 4.97285C23.0351 5.05066 23.5057 5.61504 23.4668 6.26074C23.4278 6.90644 22.8928 7.41017 22.246 7.41022ZM15.6251 15.0917C15.6682 14.9257 15.6437 14.7494 15.5571 14.6013C15.42 14.3732 15.1586 14.2504 14.8955 14.2907C14.6324 14.3309 14.4196 14.5261 14.357 14.7848C14.3168 14.9545 14.3445 15.1331 14.4339 15.2828C14.5707 15.5106 14.8323 15.6323 15.0946 15.5903C15.357 15.5482 15.5674 15.3508 15.6261 15.0917H15.6251ZM16.9581 14.0994C16.8166 14.2374 16.6266 14.3141 16.4289 14.3132C16.1938 14.3147 15.9711 14.2075 15.8255 14.0229C15.6798 13.8382 15.6275 13.5967 15.6837 13.3683C15.7179 13.226 15.7911 13.0961 15.8952 12.9931L15.8985 12.9898C16.0448 12.8498 16.2408 12.7738 16.4432 12.7784C16.6456 12.7829 16.838 12.8677 16.9779 13.0141C17.2604 13.3101 17.2505 13.8163 16.9581 14.0994ZM17.2186 12.3271C17.6327 12.5944 18.1852 12.4754 18.4526 12.0613C18.7108 11.6614 18.5871 11.0836 18.1895 10.825C17.7747 10.5566 17.2208 10.6752 16.9524 11.09C16.6839 11.5047 16.8025 12.0586 17.2173 12.3271H17.2186ZM17.6618 8.61773C17.8576 8.07508 18.4562 7.79392 18.9989 7.98972C19.4767 8.16186 19.7616 8.65272 19.674 9.15303C19.5863 9.65335 19.1516 10.0182 18.6437 10.0176C18.5229 10.0179 18.4031 9.99662 18.2898 9.95482C17.7471 9.75901 17.466 9.16038 17.6618 8.61773ZM19.185 4.52721C19.1359 4.52157 19.0865 4.51871 19.037 4.51866C18.473 4.51736 17.9825 4.90476 17.853 5.45368C17.8415 5.49932 17.833 5.54569 17.8277 5.59247C17.7877 5.91417 17.8772 6.23857 18.0764 6.49429C18.2756 6.75001 18.5683 6.91611 18.89 6.95603C18.9367 6.96168 18.9837 6.96453 19.0308 6.96458C19.6425 6.96458 20.1763 6.4923 20.2476 5.88978C20.333 5.22317 19.8618 4.61357 19.1952 4.5282H19.1863L19.185 4.52721ZM7.31288 13.3923C7.20004 13.2858 7.04301 13.2398 6.89053 13.2686C6.73805 13.2973 6.60858 13.3974 6.5423 13.5377C6.48937 13.6549 6.4843 13.7881 6.52816 13.909C6.56983 14.0306 6.65874 14.1303 6.77482 14.1856C6.83839 14.2159 6.90797 14.2316 6.9784 14.2313C7.17778 14.2321 7.35734 14.1109 7.43117 13.9257C7.505 13.7405 7.45809 13.5289 7.31288 13.3923ZM6.13021 15.039C6.19576 14.7355 6.49442 14.5422 6.79817 14.6066L6.79785 14.6069L6.80903 14.6092C7.11015 14.6772 7.29918 14.9764 7.23132 15.2775V15.2811C7.16351 15.5841 6.86342 15.7753 6.56016 15.7086C6.25689 15.6419 6.06465 15.3425 6.13021 15.039ZM6.72648 17.5149C6.99276 17.509 7.22921 17.3432 7.32538 17.0948C7.42154 16.8464 7.35844 16.5646 7.16554 16.3809C7.04578 16.2656 6.88615 16.2009 6.7199 16.2004C6.53997 16.199 6.36727 16.2711 6.2417 16.4C6.12042 16.525 6.05452 16.6936 6.05884 16.8677C6.06575 17.2123 6.37457 17.5146 6.71661 17.5146L6.72648 17.5149ZM7.38524 19.5402C7.32945 19.5543 7.27209 19.5613 7.21454 19.5609V19.5619C6.86494 19.5619 6.53934 19.3123 6.4558 18.9834C6.35314 18.5731 6.6019 18.1571 7.01195 18.0533C7.07283 18.0374 7.13551 18.0294 7.19843 18.0296C7.58523 18.0301 7.91112 18.3186 7.95859 18.7025C8.00606 19.0863 7.76026 19.4455 7.38524 19.5402ZM8.67283 21.6882C9.03461 21.5042 9.22724 21.0998 9.14207 20.703C9.0569 20.3062 8.71526 20.0164 8.30987 19.9972C7.90447 19.9779 7.53691 20.234 7.41451 20.6209C7.34151 20.8451 7.36154 21.0892 7.47009 21.2984C7.62806 21.5979 7.93963 21.7844 8.27816 21.7822C8.41526 21.7828 8.55052 21.7507 8.67283 21.6888V21.6882ZM10.7583 22.2525C10.7865 22.2794 10.8131 22.308 10.8379 22.338C11.207 22.7812 11.1506 23.4388 10.7116 23.8128C10.5258 23.9693 10.2908 24.0551 10.0479 24.0551C9.57899 24.0573 9.16624 23.7464 9.03896 23.2951C8.91168 22.8438 9.10114 22.363 9.5021 22.1199C9.90305 21.8768 10.417 21.931 10.7583 22.2525ZM8.93363 12.8661C8.89528 12.8578 8.85612 12.8537 8.81688 12.8539C8.51481 12.8514 8.26364 13.0858 8.24541 13.3873C8.22719 13.6889 8.4483 13.9518 8.74848 13.9857C9.04866 14.0195 9.32274 13.8123 9.37207 13.5143C9.4214 13.2163 9.2287 12.9318 8.93363 12.8671V12.8661ZM9.45801 15.3542C9.36264 15.6017 9.12835 15.768 8.86325 15.7764L8.85799 15.7761C8.50542 15.7761 8.20055 15.4808 8.19331 15.1308C8.18971 14.9561 8.25546 14.787 8.37617 14.6605C8.49625 14.5358 8.6615 14.4647 8.83464 14.4632H8.85799C9.02296 14.4637 9.18139 14.5278 9.30034 14.6421C9.49126 14.8262 9.55337 15.1067 9.45801 15.3542ZM8.67579 16.6651C8.57164 16.8389 8.54121 17.0472 8.59126 17.2436C8.67315 17.5725 8.99777 17.8224 9.3477 17.8224C9.40552 17.8224 9.46309 17.815 9.51905 17.8004C9.834 17.7211 10.0646 17.4516 10.0944 17.1282C10.1243 16.8048 9.94678 16.4978 9.65165 16.3622C9.35652 16.2266 9.00796 16.292 8.78202 16.5253C8.7413 16.5676 8.70565 16.6145 8.67579 16.6651ZM9.60489 19.5573C9.49718 19.3474 9.47742 19.1033 9.54996 18.8788V18.8795C9.62139 18.6525 9.78151 18.464 9.99396 18.3569C10.1194 18.2934 10.2579 18.2602 10.3985 18.2598C10.6264 18.2587 10.8459 18.3456 11.0112 18.5026C11.0851 18.5724 11.1461 18.6547 11.1914 18.7456C11.4147 19.1853 11.2418 19.7227 10.804 19.9497C10.6826 20.0102 10.5487 20.0418 10.413 20.0418C10.0743 20.0437 9.76274 19.8569 9.60489 19.5573ZM12.973 20.5999C12.947 20.5687 12.9195 20.5388 12.8905 20.5104C12.6977 20.3268 12.4416 20.2247 12.1755 20.2253C11.7694 20.226 11.4004 20.462 11.2295 20.8303C11.0586 21.1987 11.1166 21.6328 11.3782 21.9434C11.5746 22.1801 11.8663 22.317 12.1738 22.3167C12.4193 22.3163 12.6571 22.2309 12.8467 22.0749C13.2875 21.7023 13.344 21.0434 12.973 20.6012V20.5999ZM15.5031 22.2522C15.5423 22.2817 15.5797 22.3134 15.6153 22.3472H15.6146C16.0249 22.7416 16.1086 23.367 15.8165 23.8554C15.5245 24.3439 14.934 24.5661 14.3924 24.3914C13.8508 24.2167 13.5015 23.6913 13.5499 23.1243C13.5983 22.5572 14.0317 22.0987 14.5951 22.0184C14.6529 22.0092 14.7115 22.0048 14.77 22.0052C15.0348 22.0052 15.2923 22.092 15.5031 22.2522ZM10.8461 13.2147C11.1119 13.2081 11.3477 13.0427 11.4443 12.795C11.5409 12.5474 11.4795 12.2659 11.2885 12.0811C11.1634 11.963 10.9977 11.8978 10.8257 11.8989C10.6511 11.9021 10.4849 11.9747 10.3639 12.1007C10.2428 12.2266 10.1768 12.3955 10.1804 12.5701C10.187 12.9141 10.4909 13.2161 10.832 13.2161L10.8461 13.2147ZM11.3355 15.2617C10.9856 15.2617 10.6606 15.0111 10.5791 14.6822L10.5807 14.6839C10.4792 14.2743 10.7273 13.8596 11.1362 13.7554C11.1974 13.7395 11.2604 13.7316 11.3236 13.7317C11.5198 13.732 11.7083 13.8079 11.8499 13.9435C11.9544 14.0447 12.0291 14.1725 12.0659 14.3132C12.1675 14.7246 11.9163 15.1404 11.5049 15.242C11.4494 15.2551 11.3925 15.2617 11.3355 15.2617ZM11.593 16.9999C11.7518 17.298 12.0627 17.4835 12.4004 17.4817C12.5356 17.4819 12.669 17.45 12.7895 17.3886C13.2301 17.1659 13.4067 16.6282 13.1841 16.1876C12.9614 15.747 12.4237 15.5703 11.9831 15.793C11.5425 16.0157 11.3658 16.5533 11.5884 16.994C11.5891 16.9958 11.59 16.9975 11.591 16.9992L11.593 16.9999ZM14.1609 19.7573C13.8536 19.7574 13.5621 19.6208 13.3654 19.3846C12.9972 18.9414 13.0539 18.2845 13.4927 17.9109C13.8987 17.5664 14.4996 17.5853 14.8832 17.9546C14.9114 17.9809 14.938 18.0088 14.9628 18.0382C15.2241 18.3498 15.2813 18.7845 15.1094 19.1531C14.9375 19.5217 14.5676 19.7573 14.1609 19.7573ZM17.7336 21.4027C18.1183 20.8873 18.0372 20.1618 17.5483 19.744C17.0594 19.3262 16.3302 19.3591 15.881 19.8194C15.8469 19.8547 15.815 19.8922 15.7856 19.9316C15.5114 20.3025 15.4681 20.7958 15.6733 21.209C15.8786 21.6221 16.2979 21.8855 16.7591 21.8911C16.8158 21.891 16.8724 21.8872 16.9285 21.8796C17.2506 21.8356 17.5413 21.6637 17.735 21.4027H17.7336ZM20.8308 20.9126C20.98 20.9793 21.1168 21.0708 21.2353 21.1833V21.182C21.659 21.5862 21.7945 22.2074 21.5773 22.7513C21.3602 23.2951 20.8342 23.6523 20.2486 23.6536C20.0507 23.6538 19.8549 23.6122 19.6741 23.5316C19.5246 23.4647 19.3875 23.3731 19.2685 23.2606C18.8441 22.8568 18.7083 22.2353 18.9255 21.6913C19.1428 21.1472 19.6694 20.7903 20.2552 20.79C20.4536 20.7896 20.6498 20.8314 20.8308 20.9126Z" fill="white"/>
</svg>