<svg width="36" height="40" viewBox="0 0 36 40" fill="none" xmlns="http://www.w3.org/2000/svg">
<path d="M21 1.73205L32.3205 8.26795C34.1769 9.33975 35.3205 11.3205 35.3205 13.4641V26.5359C35.3205 28.6795 34.1769 30.6603 32.3205 31.732L21 38.2679C19.1436 39.3397 16.8564 39.3397 15 38.2679L3.6795 31.732C1.8231 30.6603 0.679504 28.6795 0.679504 26.5359V13.4641C0.679504 11.3205 1.8231 9.33975 3.6795 8.26795L15 1.73205C16.8564 0.660254 19.1436 0.660254 21 1.73205Z" fill="#345D9D"/>
<path style="mix-blend-mode:overlay" d="M21 1.73205L32.3205 8.26795C34.1769 9.33975 35.3205 11.3205 35.3205 13.4641V26.5359C35.3205 28.6795 34.1769 30.6603 32.3205 31.732L21 38.2679C19.1436 39.3397 16.8564 39.3397 15 38.2679L3.6795 31.732C1.8231 30.6603 0.679504 28.6795 0.679504 26.5359V13.4641C0.679504 11.3205 1.8231 9.33975 3.6795 8.26795L15 1.73205C16.8564 0.660254 19.1436 0.660254 21 1.73205Z" fill="url(#paint0_linear)"/>
<path fill-rule="evenodd" clip-rule="evenodd" d="M18.7333 18.1066L21.337 17.0298L20.7745 19.5468L18.0852 20.6486L16.7872 25.7402H26.4619L25.5455 29.7058H10.5115L12.1885 23.0645L10 23.9611L10.5115 21.507L12.8232 20.5509L12.8431 20.4721L15.8154 10H20.8L18.7333 18.1066Z" fill="white"/>
<defs>
<linearGradient id="paint0_linear" x1="10.3063" y1="5.5099" x2="28.659" y2="32.7678" gradientUnits="userSpaceOnUse">
<stop stop-color="white" stop-opacity="0.5"/>
<stop offset="1" stop-color="white" stop-opacity="0"/>
</linearGradient>
</defs>
</svg>
