<svg xmlns="http://www.w3.org/2000/svg" width="14" height="14" viewBox="0 0 14 14">
    <defs>
        <linearGradient x1="0%" y1="-12.4644886%" x2="153.881138%" y2="175.408381%" id="linearGradient-1">
            <stop stop-color="#FFFFFF" offset="0%"></stop>
            <stop stop-color="#2784DB" offset="100%"></stop>
        </linearGradient>
    </defs>
    <g id="Homepage" stroke="none" stroke-width="1" fill="none" fill-rule="evenodd">
        <g id="Homepage-Dark" transform="translate(-1288.000000, -23.000000)" fill="url(#linearGradient-1)">
            <g id="HEADER">
                <g id="Right" transform="translate(1094.000000, 14.000000)">
                    <g id="Theme-selector" transform="translate(154.000000, 0.000000)">
                        <g id="Dark" transform="translate(31.000000, 0.000000)">
                            <path d="M22.9113257,18.7799813 C22.8238331,18.6926705 22.6780121,18.663567 22.5613552,18.7217741 C21.5697723,19.2747421 20.4323683,19.5657779 19.2658001,19.5657779 C15.4744535,19.5657779 12.412212,16.5099022 12.412212,12.7264371 C12.412212,11.5913976 12.703854,10.4563581 13.2579739,9.43773289 C13.3163023,9.32131858 13.2871381,9.17580069 13.1996455,9.08848996 C13.1121529,9.00117923 12.9663319,8.97207565 12.849675,9.03028281 C10.4873744,10.3690474 9,12.871955 9,15.5785877 C9,19.6821922 12.3247193,23 16.4368722,23 C19.1491433,23 21.6572649,21.5157175 22.9696541,19.1292242 C23.0279825,19.0128099 22.9988183,18.867292 22.9113257,18.7799813 Z" id="Path"></path>
                        </g>
                    </g>
                </g>
            </g>
        </g>
    </g>
</svg>
