<svg width="36" height="40" viewBox="0 0 36 40" fill="none" xmlns="http://www.w3.org/2000/svg">
<path d="M21 1.73205L32.3205 8.26795C34.1769 9.33974 35.3205 11.3205 35.3205 13.4641V26.5359C35.3205 28.6795 34.1769 30.6602 32.3205 31.732L21 38.2679C19.1436 39.3397 16.8564 39.3397 15 38.2679L3.67949 31.732C1.82308 30.6602 0.679489 28.6795 0.679489 26.5359V13.4641C0.679489 11.3205 1.82308 9.33974 3.67949 8.26795L15 1.73205C16.8564 0.660251 19.1436 0.660251 21 1.73205Z" fill="#252525"/>
<path style="mix-blend-mode:overlay" d="M21 1.73205L32.3205 8.26795C34.1769 9.33974 35.3205 11.3205 35.3205 13.4641V26.5359C35.3205 28.6795 34.1769 30.6602 32.3205 31.732L21 38.2679C19.1436 39.3397 16.8564 39.3397 15 38.2679L3.67949 31.732C1.82308 30.6602 0.679489 28.6795 0.679489 26.5359V13.4641C0.679489 11.3205 1.82308 9.33974 3.67949 8.26795L15 1.73205C16.8564 0.660251 19.1436 0.660251 21 1.73205Z" fill="url(#paint0_linear)"/>
<path fill-rule="evenodd" clip-rule="evenodd" d="M20.2668 21.7883C22.8646 24.368 25.4827 26.9675 28.1204 29.587C27.7295 29.9318 27.2723 30.3352 26.8538 30.7041C24.3085 28.169 21.6936 25.5652 19.0646 22.9473C19.4264 22.5987 19.866 22.1748 20.2668 21.7883ZM19.091 18.0402C21.7091 15.4712 24.3626 12.8676 26.9523 10.3262C27.3016 10.6422 27.7561 11.0533 28.1727 11.4303C25.5336 14.0361 22.9259 16.6113 20.2193 19.2839C19.8389 18.8645 19.4452 18.4308 19.091 18.0402ZM8.53614 30.7898C8.27839 30.4073 7.93407 29.8958 7.65671 29.4837C10.0788 27.093 12.7231 24.4831 15.3332 21.907C15.6248 22.1825 16.0698 22.6021 16.471 22.9809C13.8434 25.5667 11.2333 28.1355 8.53614 30.7898ZM19.0745 20.4902C18.6309 20.9259 18.1984 21.3508 17.759 21.7825C17.342 21.3278 16.9307 20.8791 16.5109 20.4217C16.8719 20.1112 17.3354 19.7128 17.8281 19.2892C18.175 19.6235 18.6131 20.0454 19.0745 20.4902ZM8.53715 10.1494C11.1572 12.753 13.7558 15.3353 16.4286 17.9913C16.0403 18.3118 15.5515 18.7153 15.0941 19.0927C12.584 16.5882 9.9913 14.0011 7.33975 11.3555C7.71676 10.9757 8.14548 10.5439 8.53715 10.1494Z" fill="#FCCD18"/>
<defs>
<linearGradient id="paint0_linear" x1="10.3063" y1="5.5099" x2="28.6589" y2="32.7678" gradientUnits="userSpaceOnUse">
<stop stop-color="white" stop-opacity="0.5"/>
<stop offset="1" stop-color="white" stop-opacity="0"/>
</linearGradient>
</defs>
</svg>
