<svg width="36" height="40" viewBox="0 0 36 40" fill="none" xmlns="http://www.w3.org/2000/svg">
<path d="M21 1.73205L32.3205 8.26795C34.1769 9.33975 35.3205 11.3205 35.3205 13.4641V26.5359C35.3205 28.6795 34.1769 30.6603 32.3205 31.732L21 38.2679C19.1436 39.3397 16.8564 39.3397 15 38.2679L3.6795 31.732C1.8231 30.6603 0.679504 28.6795 0.679504 26.5359V13.4641C0.679504 11.3205 1.8231 9.33975 3.6795 8.26795L15 1.73205C16.8564 0.660254 19.1436 0.660254 21 1.73205Z" fill="#1C52F0"/>
<path style="mix-blend-mode:overlay" d="M21 1.73205L32.3205 8.26795C34.1769 9.33975 35.3205 11.3205 35.3205 13.4641V26.5359C35.3205 28.6795 34.1769 30.6603 32.3205 31.732L21 38.2679C19.1436 39.3397 16.8564 39.3397 15 38.2679L3.6795 31.732C1.8231 30.6603 0.679504 28.6795 0.679504 26.5359V13.4641C0.679504 11.3205 1.8231 9.33975 3.6795 8.26795L15 1.73205C16.8564 0.660254 19.1436 0.660254 21 1.73205Z" fill="url(#paint0_linear)"/>
<path d="M16.3763 11.7907C17.2269 12.7411 17.7442 13.9962 17.7442 15.3721C17.7442 18.339 15.339 20.7442 12.3721 20.7442C9.40517 20.7442 7 18.339 7 15.3721C7 12.4052 9.40517 10 12.3721 10C12.9451 10 13.4971 10.0897 14.0148 10.2558H17.9307V11.7907H16.3763ZM12.3721 19.2093C14.4913 19.2093 16.2093 17.4913 16.2093 15.3721C16.2093 13.2529 14.4913 11.5349 12.3721 11.5349C10.2529 11.5349 8.53488 13.2529 8.53488 15.3721C8.53488 17.4913 10.2529 19.2093 12.3721 19.2093ZM23.6279 20.7442C20.661 20.7442 18.2558 18.339 18.2558 15.3721C18.2558 12.4052 20.661 10 23.6279 10C26.5948 10 29 12.4052 29 15.3721C29 18.339 26.5948 20.7442 23.6279 20.7442ZM23.6279 19.2093C25.7471 19.2093 27.4651 17.4913 27.4651 15.3721C27.4651 13.2529 25.7471 11.5349 23.6279 11.5349C21.5087 11.5349 19.7907 13.2529 19.7907 15.3721C19.7907 17.4913 21.5087 19.2093 23.6279 19.2093ZM12.3721 32C9.40517 32 7 29.5948 7 26.6279C7 23.661 9.40517 21.2558 12.3721 21.2558C15.339 21.2558 17.7442 23.661 17.7442 26.6279C17.7442 29.5948 15.339 32 12.3721 32ZM12.3721 30.4651C14.4913 30.4651 16.2093 28.7471 16.2093 26.6279C16.2093 24.5087 14.4913 22.7907 12.3721 22.7907C10.2529 22.7907 8.53488 24.5087 8.53488 26.6279C8.53488 28.7471 10.2529 30.4651 12.3721 30.4651Z" fill="white"/>
<defs>
<linearGradient id="paint0_linear" x1="10.3063" y1="5.5099" x2="28.659" y2="32.7678" gradientUnits="userSpaceOnUse">
<stop stop-color="white" stop-opacity="0.5"/>
<stop offset="1" stop-color="white" stop-opacity="0"/>
</linearGradient>
</defs>
</svg>
