<svg width="36" height="40" viewBox="0 0 36 40" fill="none" xmlns="http://www.w3.org/2000/svg">
<path d="M21 1.73205L32.3205 8.26795C34.1769 9.33975 35.3205 11.3205 35.3205 13.4641V26.5359C35.3205 28.6795 34.1769 30.6603 32.3205 31.7321L21 38.268C19.1436 39.3397 16.8564 39.3397 15 38.268L3.67949 31.7321C1.82308 30.6603 0.679489 28.6795 0.679489 26.5359V13.4641C0.679489 11.3205 1.82308 9.33975 3.67949 8.26795L15 1.73205C16.8564 0.660258 19.1436 0.660258 21 1.73205Z" fill="url(#paint0_linear)"/>
<path style="mix-blend-mode:overlay" d="M21 1.73205L32.3205 8.26795C34.1769 9.33975 35.3205 11.3205 35.3205 13.4641V26.5359C35.3205 28.6795 34.1769 30.6603 32.3205 31.7321L21 38.268C19.1436 39.3397 16.8564 39.3397 15 38.268L3.67949 31.7321C1.82308 30.6603 0.679489 28.6795 0.679489 26.5359V13.4641C0.679489 11.3205 1.82308 9.33975 3.67949 8.26795L15 1.73205C16.8564 0.660258 19.1436 0.660258 21 1.73205Z" fill="url(#paint1_linear)"/>
<path fill-rule="evenodd" clip-rule="evenodd" d="M13.8286 10.6533C14.9543 9.38672 16.213 8.84788 17.6048 9.03677C19.6925 9.3201 20.7879 10.6471 22.0552 10.9976C23.3226 11.3482 27.1522 11.9187 27.7132 12.1405C28.2741 12.3622 29.3367 13.0358 29.3367 14.6935C29.3367 15.7987 29.1581 16.853 28.8008 17.8563C29.8659 19.5128 30.2215 20.8209 29.8676 21.7806C29.3367 23.2201 29.0409 23.9398 28.1231 24.3845C27.5112 24.6811 26.1945 25.3703 24.1731 26.4524C22.6187 27.5267 21.2734 28.6178 20.1371 29.7257C18.4327 31.3875 16.4343 31.0143 15.3902 30.8303C14.6942 30.7076 13.3433 29.8568 11.3376 28.278C9.17476 27.8502 7.71371 27.2417 6.95446 26.4524C5.81559 25.2683 5.55476 23.4735 6.95446 19.6889C8.35416 15.9042 7.90383 12.7641 9.81514 11.5343C11.0893 10.7144 12.4271 10.4208 13.8286 10.6533ZM17.4046 25.9659C20.9428 25.9659 23.811 23.156 23.811 19.6897C23.811 16.2234 20.9428 13.4134 17.4046 13.4134C13.8665 13.4134 10.9983 16.2234 10.9983 19.6897C10.9983 23.156 13.8665 25.9659 17.4046 25.9659Z" fill="white"/>
<defs>
<linearGradient id="paint0_linear" x1="4.20321" y1="9.72662" x2="33.4292" y2="27.5269" gradientUnits="userSpaceOnUse">
<stop stop-color="#319148"/>
<stop offset="1" stop-color="#097FA2"/>
</linearGradient>
<linearGradient id="paint1_linear" x1="10.3063" y1="5.50991" x2="28.6589" y2="32.7678" gradientUnits="userSpaceOnUse">
<stop stop-color="white" stop-opacity="0.5"/>
<stop offset="1" stop-color="white" stop-opacity="0"/>
</linearGradient>
</defs>
</svg>
