<svg width="18" height="18" viewBox="0 0 18 18" fill="none" xmlns="http://www.w3.org/2000/svg">
    <path fill-rule="evenodd" clip-rule="evenodd" d="M14.0805 13.0436L17.7779 16.7099C18.0737 17.0053 18.0744 17.4834 17.7779 17.778C17.6288 17.926 17.4341 18 17.2395 18C17.0448 18 16.8501 17.926 16.7018 17.7795L12.9916 14.1003C11.6212 15.2001 9.87982 15.8625 7.98476 15.8625C3.58249 15.8625 0 12.3049 0 7.9316C0 3.5583 3.58327 0 7.98628 0C12.3893 0 15.971 3.55757 15.971 7.93086C15.971 9.8788 15.2577 11.6621 14.0805 13.0436ZM1.52093 7.9316C1.52093 11.4718 4.42054 14.3518 7.98476 14.3518C11.549 14.3518 14.4486 11.4718 14.4486 7.9316C14.4486 4.39144 11.549 1.5114 7.98476 1.5114C4.4205 1.5114 1.52093 4.39144 1.52093 7.9316Z" fill="#9b99aa"/>
</svg>