<svg width="33" height="33" viewBox="-8 -6 31 35" fill="none" xmlns="http://www.w3.org/2000/svg">
<path fill-rule="evenodd" clip-rule="evenodd" d="M12 26L6 20H9L9 18H15V20H18L12 26Z" fill="url(#paint0_linear)"/>
<path fill-rule="evenodd" clip-rule="evenodd" d="M9 6V0L15 0L15 6L9 6Z" fill="url(#paint1_linear)"/>
<path fill-rule="evenodd" clip-rule="evenodd" d="M0 14.435V14.019C0 13.8977 0.0606661 13.837 0.182 13.837H0.767C0.888334 13.837 0.949 13.8977 0.949 14.019V14.357C0.949 15.137 1.33466 15.527 2.106 15.527H3.25C4.02134 15.527 4.407 15.1283 4.407 14.331V13.889C4.407 13.265 3.89134 12.8577 2.86 12.667C2.42666 12.589 1.99334 12.498 1.56 12.394C1.12666 12.29 0.758335 12.0885 0.455 11.7895C0.151665 11.4905 0 11.081 0 10.561V9.924C0 9.326 0.171165 8.85584 0.5135 8.5135C0.855835 8.17116 1.326 8 1.924 8H3.367C3.95634 8 4.42433 8.17116 4.771 8.5135C5.11767 8.85584 5.291 9.326 5.291 9.924V10.249C5.291 10.379 5.23467 10.444 5.122 10.444H4.524C4.41133 10.444 4.355 10.379 4.355 10.249V10.015C4.355 9.22633 3.96934 8.832 3.198 8.832H2.093C1.32166 8.832 0.936 9.24366 0.936 10.067V10.587C0.936 11.029 1.22633 11.3323 1.807 11.497C2.067 11.5663 2.353 11.6292 2.665 11.6855C2.977 11.7418 3.29117 11.8155 3.6075 11.9065C3.92383 11.9975 4.212 12.1102 4.472 12.2445C4.732 12.3788 4.94217 12.5825 5.1025 12.8555C5.26283 13.1285 5.343 13.46 5.343 13.85V14.435C5.343 15.033 5.16967 15.5032 4.823 15.8455C4.47633 16.1878 4.00834 16.359 3.419 16.359H1.924C1.33466 16.359 0.866668 16.1878 0.52 15.8455C0.173332 15.5032 0 15.033 0 14.435ZM11.57 16.359H7.488C7.36667 16.359 7.306 16.2983 7.306 16.177V8.182C7.306 8.06067 7.36667 8 7.488 8H11.57C11.6913 8 11.752 8.06067 11.752 8.182V8.65C11.752 8.77133 11.6913 8.832 11.57 8.832H8.385C8.29833 8.832 8.255 8.871 8.255 8.949V11.575C8.255 11.653 8.29833 11.692 8.385 11.692H11.167C11.2883 11.692 11.349 11.7527 11.349 11.874V12.342C11.349 12.4633 11.2883 12.524 11.167 12.524H8.385C8.29833 12.524 8.255 12.563 8.255 12.641V15.41C8.255 15.488 8.29833 15.527 8.385 15.527H11.57C11.6913 15.527 11.752 15.5877 11.752 15.709V16.177C11.752 16.2983 11.6913 16.359 11.57 16.359ZM17.901 16.359H13.728C13.6067 16.359 13.546 16.2983 13.546 16.177V8.182C13.546 8.06067 13.6067 8 13.728 8H14.313C14.4343 8 14.495 8.06067 14.495 8.182V15.384C14.495 15.462 14.5383 15.501 14.625 15.501H17.901C18.0223 15.501 18.083 15.566 18.083 15.696V16.177C18.083 16.2983 18.0223 16.359 17.901 16.359ZM23.764 16.359H19.591C19.4697 16.359 19.409 16.2983 19.409 16.177V8.182C19.409 8.06067 19.4697 8 19.591 8H20.176C20.2973 8 20.358 8.06067 20.358 8.182V15.384C20.358 15.462 20.4013 15.501 20.488 15.501H23.764C23.8853 15.501 23.946 15.566 23.946 15.696V16.177C23.946 16.2983 23.8853 16.359 23.764 16.359Z" fill="url(#paint2_linear)"/>
<defs>
<linearGradient id="paint0_linear" x1="29.2724" y1="20.8419" x2="18.7091" y2="1.49696" gradientUnits="userSpaceOnUse">
<stop stop-color="white"/>
<stop offset="1" stop-color="#2784DB"/>
</linearGradient>
<linearGradient id="paint1_linear" x1="21" y1="4" x2="12" y2="-9" gradientUnits="userSpaceOnUse">
<stop stop-color="white"/>
<stop offset="1" stop-color="#2784DB"/>
</linearGradient>
<linearGradient id="paint2_linear" x1="-22.494" y1="13.3896" x2="-15.5585" y2="37.6465" gradientUnits="userSpaceOnUse">
<stop stop-color="white"/>
<stop offset="1" stop-color="#2784DB"/>
</linearGradient>
</defs>
</svg>
