<svg width="36" height="40" viewBox="0 0 36 40" fill="none" xmlns="http://www.w3.org/2000/svg">
<path d="M21 1.73205L32.3205 8.26795C34.1769 9.33974 35.3205 11.3205 35.3205 13.4641V26.5359C35.3205 28.6795 34.1769 30.6602 32.3205 31.732L21 38.2679C19.1436 39.3397 16.8564 39.3397 15 38.2679L3.67949 31.732C1.82308 30.6602 0.679489 28.6795 0.679489 26.5359V13.4641C0.679489 11.3205 1.82308 9.33974 3.67949 8.26795L15 1.73205C16.8564 0.660251 19.1436 0.660251 21 1.73205Z" fill="#4A57AD"/>
<path style="mix-blend-mode:overlay" d="M21 1.73205L32.3205 8.26795C34.1769 9.33974 35.3205 11.3205 35.3205 13.4641V26.5359C35.3205 28.6795 34.1769 30.6602 32.3205 31.732L21 38.2679C19.1436 39.3397 16.8564 39.3397 15 38.2679L3.67949 31.732C1.82308 30.6602 0.679489 28.6795 0.679489 26.5359V13.4641C0.679489 11.3205 1.82308 9.33974 3.67949 8.26795L15 1.73205C16.8564 0.660251 19.1436 0.660251 21 1.73205Z" fill="url(#paint0_linear)"/>
<path opacity="0.78697" fill-rule="evenodd" clip-rule="evenodd" d="M14.5489 20.3124C15.8825 20.2898 17.098 20.4516 18.3146 20.6162C18.9247 20.6987 19.5375 20.7719 20.154 20.7988C20.3924 20.8092 20.6304 20.8307 20.8689 20.8365C21.712 20.8568 22.5543 20.8441 23.389 20.7051C23.5732 20.6744 23.6162 20.7472 23.6002 20.9087C23.5435 21.4811 23.4161 22.0386 23.2524 22.5876C22.7679 24.2128 21.9426 25.6395 20.7706 26.8454C19.1214 28.5423 17.1311 29.5813 14.7959 29.8815C13.5047 30.0476 12.2122 30.0471 10.9624 29.5897C9.27148 28.9708 8.30017 27.7539 8.08578 25.9389C7.98877 25.1173 8.01037 24.2957 8.2926 23.5032C8.71889 22.3062 9.56702 21.5212 10.6843 21.0123C11.5593 20.6137 12.4853 20.426 13.4385 20.3442C13.8437 20.3094 14.2473 20.3239 14.5489 20.3124Z" fill="white"/>
<path fill-rule="evenodd" clip-rule="evenodd" d="M21.3181 19.6777C20.0801 19.7058 18.859 19.5301 17.6359 19.3712C17.0053 19.2892 16.373 19.2223 15.7371 19.185C15.2661 19.1573 14.7959 19.156 14.3251 19.1507C13.7865 19.1447 13.2536 19.2094 12.7207 19.2766C12.4176 19.3148 12.3877 19.2908 12.4344 18.9739C12.532 18.3129 12.6819 17.664 12.8969 17.0312C13.3988 15.5535 14.1871 14.2507 15.2659 13.1418C16.833 11.5311 18.7185 10.5144 20.9258 10.1542C22.1727 9.95063 23.4237 9.93351 24.6557 10.2731C25.976 10.6369 27.0112 11.3725 27.5842 12.678C27.8354 13.2501 27.9667 13.8518 27.9818 14.4808C27.9988 15.1857 27.9728 15.8817 27.7179 16.5513C27.2634 17.7448 26.3989 18.5188 25.2709 19.0152C24.3981 19.3993 23.4795 19.5849 22.5304 19.6472C22.1255 19.6737 21.722 19.6645 21.3181 19.6777Z" fill="white"/>
<defs>
<linearGradient id="paint0_linear" x1="10.3063" y1="5.5099" x2="28.6589" y2="32.7678" gradientUnits="userSpaceOnUse">
<stop stop-color="white" stop-opacity="0.5"/>
<stop offset="1" stop-color="white" stop-opacity="0"/>
</linearGradient>
</defs>
</svg>
