<svg xmlns="http://www.w3.org/2000/svg" xmlns:xlink="http://www.w3.org/1999/xlink" width="17px" height="17px" viewBox="0 0 17 17">
    <g id="Homepage" stroke="none" stroke-width="1" fill="none" fill-rule="evenodd" opacity="0.199707031">
        <g id="Homepage-Dark" transform="translate(-1256.000000, -22.000000)" fill="#000000" fill-rule="nonzero">
            <g id="HEADER">
                <g id="Right" transform="translate(1094.000000, 14.000000)">
                    <g id="Theme-selector" transform="translate(154.000000, 0.000000)">
                        <g id="Light">
                            <g id="Group-14" transform="translate(8.000000, 8.000000)">
                                <g id="Group-13">
                                    <path d="M8.5,12.5 C6.290861,12.5 4.5,10.709139 4.5,8.5 C4.5,6.290861 6.290861,4.5 8.5,4.5 C10.709139,4.5 12.5,6.290861 12.5,8.5 C12.5,10.709139 10.709139,12.5 8.5,12.5 Z M8.5,11.5 C10.1568542,11.5 11.5,10.1568542 11.5,8.5 C11.5,6.84314575 10.1568542,5.5 8.5,5.5 C6.84314575,5.5 5.5,6.84314575 5.5,8.5 C5.5,10.1568542 6.84314575,11.5 8.5,11.5 Z M8,0 L9,0 L9,3 L8,3 L8,0 Z M8,14 L9,14 L9,17 L8,17 L8,14 Z M0,9 L6.123234e-17,8 L3,8 L3,9 L0,9 Z M14,9 L14,8 L17,8 L17,9 L14,9 Z M3.55025253,14.1568542 L2.84314575,13.4497475 L4.25735931,12.0355339 L4.96446609,12.7426407 L3.55025253,14.1568542 Z M12.7426407,4.96446609 L12.0355339,4.25735931 L13.4497475,2.84314575 L14.1568542,3.55025253 L12.7426407,4.96446609 Z M2.84314575,3.55025253 L3.55025253,2.84314575 L4.96446609,4.25735931 L4.25735931,4.96446609 L2.84314575,3.55025253 Z M12.0355339,12.7426407 L12.7426407,12.0355339 L14.1568542,13.4497475 L13.4497475,14.1568542 L12.0355339,12.7426407 Z" id="Combined-Shape"></path>
                                </g>
                            </g>
                        </g>
                    </g>
                </g>
            </g>
        </g>
    </g>
</svg>
