<svg viewBox="0 0 26 30" fill="none" xmlns="http://www.w3.org/2000/svg">
    <path fillRule="evenodd" clipRule="evenodd" d="M25.1175 7.89959L24.5043 7.46459C23.4871 6.74311 22.425 5.98976 21.3825 5.24159L21.3683 5.23109C21.3448 5.21359 21.3213 5.19609 21.2925 5.17859C21.1456 5.05792 20.9792 4.96307 20.8005 4.89809L20.7855 4.89058C17.4301 4.06721 14.0756 3.24021 10.722 2.40958L1.746 0.194085L1.5105 0.131085C1.2405 0.0545851 0.9285 -0.0309149 0.5955 0.0110851C0.504288 0.0250581 0.417246 0.0588508 0.3405 0.110085L0.2565 0.180585C0.151316 0.288438 0.070945 0.417953 0.021 0.560085L0 0.617085V0.939585L0.015 0.989085C1.50885 5.23945 3.03456 9.53854 4.53288 13.7604L4.53307 13.761L4.53446 13.7649L4.53476 13.7657C4.93146 14.8835 5.32624 15.9959 5.718 17.1006C6.22286 18.5243 6.73471 19.9656 7.24949 21.4152L7.25058 21.4183C8.20528 24.1067 9.17005 26.8235 10.119 29.5086C10.209 29.7891 10.4655 29.9736 10.785 30.0006H10.854C11.1384 30.0079 11.404 29.8595 11.547 29.6136L17.037 21.4941C17.552 20.7328 18.0673 19.9707 18.5827 19.2083L18.5878 19.2007L18.5904 19.1969L18.5909 19.196C19.4102 17.9841 20.2299 16.7717 21.0495 15.5616L22.692 13.1286C23.592 11.7936 24.522 10.4151 25.4445 9.07259L25.4925 9.00358V8.91809C25.5135 8.67208 25.5195 8.16658 25.1175 7.89809V7.89959ZM18.6855 10.8591C18.1412 11.1464 17.5923 11.4378 17.0401 11.7309C16.2837 12.1325 15.5211 12.5373 14.7555 12.9396L17.0715 10.4226C18.0051 9.40033 18.9781 8.34423 19.9332 7.30761L19.9342 7.30649L19.9356 7.30503L19.9367 7.30384L20.0235 7.20959L20.0445 7.18859C20.1233 7.08114 20.2226 6.98053 20.3281 6.8737L20.3281 6.87367L20.343 6.85858C20.3627 6.83853 20.3829 6.81837 20.4036 6.79789C20.4615 6.74025 20.5221 6.68009 20.5785 6.61259C21.0915 6.97259 21.6105 7.33708 22.11 7.69559C22.47 7.95508 22.8375 8.21609 23.2125 8.47558C21.6982 9.26007 20.1892 10.0546 18.6855 10.8591ZM12.3375 13.8321C13.356 12.7281 14.382 11.6106 15.3735 10.5216L15.5507 10.3282C16.7974 8.96808 18.0816 7.56694 19.359 6.18359L7.2915 3.21059C6.61113 3.0362 5.9185 2.86863 5.24866 2.70658L5.1495 2.68259C4.353 2.49359 3.5415 2.29559 2.7375 2.08559C2.77863 2.13606 2.81975 2.18581 2.86065 2.23528L2.86066 2.23528C2.95103 2.34459 3.04029 2.45256 3.126 2.56409C3.18485 2.63662 3.24384 2.71055 3.30309 2.7848C3.43867 2.9547 3.57563 3.12634 3.7155 3.28709L3.7215 3.29459L6.39 6.54959C8.37831 8.97233 10.3608 11.3998 12.3375 13.8321ZM11.886 24.2226C11.9074 24.0159 11.9294 23.8075 11.9516 23.5983C12.0084 23.0605 12.0658 22.5168 12.1155 21.9801C12.14 21.7472 12.1643 21.5125 12.1885 21.2783L12.1887 21.277L12.1887 21.2765C12.2267 20.9094 12.2646 20.5435 12.303 20.1876C12.3248 19.9752 12.347 19.7611 12.3694 19.5459C12.4456 18.8128 12.5231 18.0671 12.588 17.3331L12.6075 17.1651C12.6765 16.5591 12.7455 15.9351 12.7875 15.3081C12.8682 15.2625 12.9519 15.2224 13.038 15.1881C13.061 15.1774 13.084 15.167 13.107 15.1567L13.107 15.1567C13.1875 15.1204 13.268 15.0841 13.3485 15.0351C14.9495 14.1818 16.553 13.3333 18.159 12.4896C19.4765 11.7963 20.8214 11.0827 22.1637 10.3705L22.1643 10.3702L23.0325 9.90958C21.5544 12.0804 20.0824 14.2555 18.6165 16.4346C18.2746 16.9398 17.9301 17.4494 17.5838 17.9616L17.5833 17.9624C16.6733 19.3085 15.7511 20.6728 14.832 22.0221C14.5368 22.464 14.2336 22.9107 13.9332 23.3534L13.9331 23.3535C13.7268 23.6576 13.5218 23.9597 13.3215 24.2571L13.2985 24.2909L13.2983 24.2912C12.7507 25.0963 12.1903 25.9203 11.6445 26.7471C11.7135 25.9026 11.796 25.0521 11.886 24.2226ZM2.12357 3.46137C2.15808 3.55594 2.19266 3.65067 2.226 3.74459H2.2245L9.273 23.6316L10.0155 25.7196C10.1128 26.009 10.2143 26.2971 10.32 26.5836C10.3287 26.6076 10.3377 26.632 10.3468 26.6567C10.3753 26.7341 10.4049 26.8145 10.431 26.8941C10.4625 26.5987 10.4921 26.3033 10.5215 26.0097C10.551 25.716 10.5802 25.4242 10.611 25.1361C10.6259 24.9931 10.641 24.8497 10.656 24.7059C10.7876 23.4497 10.9223 22.1642 11.034 20.8896L11.0415 20.8416L11.2005 19.4421C11.2087 19.3685 11.2173 19.2945 11.226 19.2201C11.2538 18.9819 11.282 18.7401 11.298 18.5001V18.4941C11.3523 18.005 11.3995 17.5217 11.4465 17.0399L11.4495 17.0091C11.48 16.7288 11.5094 16.4436 11.539 16.1562C11.5835 15.7239 11.6285 15.2864 11.679 14.8521C11.4912 14.6412 11.3146 14.4222 11.141 14.207C11.0776 14.1283 11.0145 14.0502 10.9515 13.9731C10.7715 13.7481 10.584 13.5156 10.3965 13.2981C9.73915 12.4902 9.08181 11.6887 8.42446 10.8873C8.13231 10.5311 7.84015 10.1749 7.548 9.81808C5.7105 7.58309 3.8265 5.27759 1.9545 2.98558C2.00644 3.14045 2.06491 3.30067 2.12357 3.46137Z" fill="white"/>
</svg>