<svg width="36" height="40" viewBox="0 0 36 40" fill="none" xmlns="http://www.w3.org/2000/svg">
<path d="M21 1.73205L32.3205 8.26795C34.1769 9.33974 35.3205 11.3205 35.3205 13.4641V26.5359C35.3205 28.6795 34.1769 30.6602 32.3205 31.732L21 38.2679C19.1436 39.3397 16.8564 39.3397 15 38.2679L3.67949 31.732C1.82308 30.6602 0.679489 28.6795 0.679489 26.5359V13.4641C0.679489 11.3205 1.82308 9.33974 3.67949 8.26795L15 1.73205C16.8564 0.660251 19.1436 0.660251 21 1.73205Z" fill="#2D5FDC"/>
<path style="mix-blend-mode:overlay" d="M21 1.73205L32.3205 8.26795C34.1769 9.33974 35.3205 11.3205 35.3205 13.4641V26.5359C35.3205 28.6795 34.1769 30.6602 32.3205 31.732L21 38.2679C19.1436 39.3397 16.8564 39.3397 15 38.2679L3.67949 31.732C1.82308 30.6602 0.679489 28.6795 0.679489 26.5359V13.4641C0.679489 11.3205 1.82308 9.33974 3.67949 8.26795L15 1.73205C16.8564 0.660251 19.1436 0.660251 21 1.73205Z" fill="url(#paint0_linear)"/>
<path fill-rule="evenodd" clip-rule="evenodd" d="M15.8234 22.9141C16.025 23.4584 16.3884 23.8451 16.9489 24.0233C17.6795 24.2555 18.4148 24.2955 19.1406 24.0116C19.8679 23.7272 20.2359 23.159 20.214 22.3937C20.1933 21.6703 19.8811 21.3027 19.0603 21.039C18.2844 20.7896 17.4633 20.7589 16.6792 20.5486C16.4717 20.4931 16.2634 20.439 16.0596 20.3717C14.8726 19.9795 14.0989 19.2459 13.9914 17.928C13.8783 16.5429 14.4109 15.5149 15.6196 14.8329C15.9839 14.6273 16.3741 14.4877 16.7829 14.4164C17.0283 14.3737 17.1111 14.2646 17.0968 14.0217C17.0784 13.7077 17.0903 13.3918 17.0938 13.0769C17.095 12.9615 17.0724 12.8252 17.1239 12.7341C17.4631 12.1335 18.0417 12.4406 18.518 12.4095C18.8441 12.3882 19.0077 12.6357 19.0013 12.9739C18.9948 13.322 19.0157 13.6712 18.9956 14.0181C18.9793 14.3007 19.0772 14.4126 19.3626 14.4847C20.6166 14.8014 21.4714 15.5547 21.796 16.8407C21.9151 17.3126 21.7524 17.5292 21.2701 17.5467C21.0549 17.5544 20.838 17.5349 20.6237 17.5512C20.2402 17.5804 20.0221 17.4301 19.8745 17.0586C19.3803 15.8146 17.2862 15.4267 16.3305 16.3841C15.6626 17.0532 15.8935 18.2338 16.7757 18.609C17.5475 18.9373 18.3916 18.9503 19.1965 19.1359C19.5026 19.2065 19.8113 19.2741 20.109 19.3725C21.1461 19.7149 21.9408 20.3171 22.1597 21.455C22.4048 22.7294 22.1314 23.8595 21.132 24.7521C20.653 25.1802 20.0941 25.4802 19.4676 25.5971C19.0662 25.6719 18.9528 25.8513 18.9944 26.2288C19.025 26.5072 19.0024 26.7918 18.9989 27.0737C18.9977 27.1725 19.0149 27.29 18.9695 27.3671C18.6215 27.9593 18.045 27.64 17.5693 27.6808C17.2347 27.7096 17.091 27.4496 17.0909 27.1166C17.0907 26.6702 17.229 26.1208 17.0199 25.8083C16.8354 25.5328 16.2457 25.5466 15.8522 25.3895C14.7816 24.9624 14.0914 24.1874 13.7958 23.0653C13.5991 22.3188 13.7346 22.1353 14.5083 22.1328C14.5747 22.1327 14.641 22.1328 14.7074 22.1328C15.5356 22.1328 15.5343 22.1333 15.8234 22.9141ZM21.6292 11.2025C20.9594 10.9272 20.6242 10.0009 20.9643 9.3541C21.1368 9.02599 21.4015 9.07447 21.6922 9.17312C23.8545 9.90718 25.6515 11.1648 27.06 12.958C31.8869 19.1029 29.3012 28.1502 21.9594 30.8265C21.7892 30.8886 21.6156 30.9489 21.4385 30.9824C21.2459 31.0187 21.0836 30.9556 20.9759 30.7717C20.6271 30.176 20.9591 29.1619 21.5918 28.9034C25.2391 27.4135 27.571 23.9711 27.5776 20.067C27.5842 16.1652 25.2535 12.6921 21.6292 11.2025ZM14.249 9.22159C14.9768 8.96744 15.1919 9.11677 15.1968 9.8793C15.2032 10.8862 15.2032 10.8862 14.2915 11.2778C10.7426 12.8021 8.48302 16.2747 8.51558 20.1545C8.54764 23.9827 10.8758 27.4118 14.4415 28.883C15.14 29.1711 15.4666 30.023 15.1389 30.7193C14.9657 31.0872 14.6741 31.012 14.3742 30.9103C12.2283 30.1822 10.4505 28.9276 9.04716 27.1534C7.4058 25.0783 6.61076 22.7006 6.56854 20.0633C6.56087 15.2039 9.66428 10.8228 14.249 9.22159Z" fill="#F9FBFD"/>
<mask id="mask0" mask-type="alpha" maskUnits="userSpaceOnUse" x="6" y="9" width="9" height="22">
<path d="M6 9.10738H14.6982V30.9937H6V9.10738Z" fill="white"/>
</mask>
<g mask="url(#mask0)">
</g>
<defs>
<linearGradient id="paint0_linear" x1="10.3063" y1="5.5099" x2="28.6589" y2="32.7678" gradientUnits="userSpaceOnUse">
<stop stop-color="white" stop-opacity="0.5"/>
<stop offset="1" stop-color="white" stop-opacity="0"/>
</linearGradient>
</defs>
</svg>
