<svg width="36" height="40" viewBox="0 0 36 40" fill="none" xmlns="http://www.w3.org/2000/svg">
<path d="M21 1.73205L32.3205 8.26795C34.1769 9.33974 35.3205 11.3205 35.3205 13.4641V26.5359C35.3205 28.6795 34.1769 30.6602 32.3205 31.732L21 38.2679C19.1436 39.3397 16.8564 39.3397 15 38.2679L3.6795 31.732C1.8231 30.6602 0.679504 28.6795 0.679504 26.5359V13.4641C0.679504 11.3205 1.8231 9.33974 3.6795 8.26795L15 1.73205C16.8564 0.660251 19.1436 0.660251 21 1.73205Z" fill="#26A17B"/>
<path style="mix-blend-mode:overlay" d="M21 1.73205L32.3205 8.26795C34.1769 9.33974 35.3205 11.3205 35.3205 13.4641V26.5359C35.3205 28.6795 34.1769 30.6602 32.3205 31.732L21 38.2679C19.1436 39.3397 16.8564 39.3397 15 38.2679L3.6795 31.732C1.8231 30.6602 0.679504 28.6795 0.679504 26.5359V13.4641C0.679504 11.3205 1.8231 9.33974 3.6795 8.26795L15 1.73205C16.8564 0.660251 19.1436 0.660251 21 1.73205Z" fill="url(#paint0_linear)"/>
<path d="M20.4522 20.9614V20.9593C20.3343 20.9679 19.7268 21.0043 18.3714 21.0043C17.2893 21.0043 16.5275 20.9721 16.2597 20.9593V20.9625C12.0939 20.7793 8.98466 20.0539 8.98466 19.1861C8.98466 18.3193 12.0939 17.5939 16.2597 17.4075V20.2403C16.5318 20.2596 17.3118 20.3057 18.3897 20.3057C19.6829 20.3057 20.3311 20.2521 20.4522 20.2414V17.4096C24.6093 17.595 27.7111 18.3204 27.7111 19.1861C27.7111 20.0539 24.6093 20.7771 20.4522 20.9614ZM20.4522 17.115V14.58H26.2529V10.7143H10.4589V14.58H16.2597V17.1139C11.5454 17.3303 8.00002 18.2646 8.00002 19.3832C8.00002 20.5018 11.5454 21.435 16.2597 21.6525V29.7761H20.4522V21.6503C25.1589 21.4339 28.6957 20.5007 28.6957 19.3832C28.6957 18.2657 25.1589 17.3325 20.4522 17.115Z" fill="white"/>
<defs>
<linearGradient id="paint0_linear" x1="10.3063" y1="5.5099" x2="28.659" y2="32.7678" gradientUnits="userSpaceOnUse">
<stop stop-color="white" stop-opacity="0.5"/>
<stop offset="1" stop-color="white" stop-opacity="0"/>
</linearGradient>
</defs>
</svg>
