<svg width="36" height="40" viewBox="0 0 36 40" fill="none" xmlns="http://www.w3.org/2000/svg">
<path d="M21 1.73205L32.3205 8.26795C34.1769 9.33974 35.3205 11.3205 35.3205 13.4641V26.5359C35.3205 28.6795 34.1769 30.6602 32.3205 31.732L21 38.2679C19.1436 39.3397 16.8564 39.3397 15 38.2679L3.6795 31.732C1.8231 30.6602 0.679504 28.6795 0.679504 26.5359V13.4641C0.679504 11.3205 1.8231 9.33974 3.6795 8.26795L15 1.73205C16.8564 0.660251 19.1436 0.660251 21 1.73205Z" fill="#23292F"/>
<path style="mix-blend-mode:overlay" d="M21 1.73205L32.3205 8.26795C34.1769 9.33974 35.3205 11.3205 35.3205 13.4641V26.5359C35.3205 28.6795 34.1769 30.6602 32.3205 31.732L21 38.2679C19.1436 39.3397 16.8564 39.3397 15 38.2679L3.6795 31.732C1.8231 30.6602 0.679504 28.6795 0.679504 26.5359V13.4641C0.679504 11.3205 1.8231 9.33974 3.6795 8.26795L15 1.73205C16.8564 0.660251 19.1436 0.660251 21 1.73205Z" fill="url(#paint0_linear)"/>
<path d="M25.575 11.4286H28.6714L22.2268 17.8111C19.8823 20.121 16.1177 20.121 13.7732 17.8111L7.32321 11.4286H10.425L15.3214 16.2746C16.8052 17.7392 19.1905 17.7392 20.6743 16.2746L25.575 11.4286ZM10.3875 29.1746H7.28571L13.7732 22.7536C16.1177 20.4437 19.8823 20.4437 22.2268 22.7536L28.7143 29.1736H25.6125L20.6786 24.2857C19.1948 22.8212 16.8095 22.8212 15.3257 24.2857L10.3864 29.1746H10.3875Z" fill="white"/>
<defs>
<linearGradient id="paint0_linear" x1="10.3063" y1="5.5099" x2="28.659" y2="32.7678" gradientUnits="userSpaceOnUse">
<stop stop-color="white" stop-opacity="0.5"/>
<stop offset="1" stop-color="white" stop-opacity="0"/>
</linearGradient>
</defs>
</svg>
