<svg width="35" height="39" viewBox="0 0 35 39" fill="none" xmlns="http://www.w3.org/2000/svg">
<path d="M20.3205 0.803847L31.641 7.33975C33.4974 8.41154 34.641 10.3923 34.641 12.5359V25.6077C34.641 27.7513 33.4974 29.732 31.641 30.8038L20.3205 37.3397C18.4641 38.4115 16.1769 38.4115 14.3205 37.3397L3 30.8038C1.14359 29.732 0 27.7513 0 25.6077V12.5359C0 10.3923 1.14359 8.41154 3 7.33975L14.3205 0.803847C16.1769 -0.267949 18.4641 -0.267949 20.3205 0.803847Z" fill="#3C3C3C"/>
<path style="mix-blend-mode:overlay" d="M20.3205 0.803847L31.641 7.33975C33.4974 8.41154 34.641 10.3923 34.641 12.5359V25.6077C34.641 27.7513 33.4974 29.732 31.641 30.8038L20.3205 37.3397C18.4641 38.4115 16.1769 38.4115 14.3205 37.3397L3 30.8038C1.14359 29.732 0 27.7513 0 25.6077V12.5359C0 10.3923 1.14359 8.41154 3 7.33975L14.3205 0.803847C16.1769 -0.267949 18.4641 -0.267949 20.3205 0.803847Z" fill="url(#paint0_linear)"/>
<path fill-rule="evenodd" clip-rule="evenodd" d="M17.484 30.4484C15.5823 30.4661 13.8007 29.998 12.1238 29.1123C11.7238 28.901 11.7192 28.8416 12.0734 28.5763C14.1477 27.0221 16.2273 25.475 18.2941 23.9107C18.5811 23.6935 18.764 23.7035 19.0069 23.9614C19.4458 24.4274 19.9224 24.8577 20.3663 25.3192C20.554 25.5145 20.7059 25.5315 20.9458 25.4009C21.931 24.8643 22.7576 24.1534 23.4199 23.2489C23.732 22.8224 23.7406 22.8197 24.0722 23.2574C24.7378 24.136 25.3834 25.0301 26.0638 25.8968C26.308 26.2077 26.2847 26.4249 26.0252 26.7004C24.1415 28.7022 21.8576 29.9392 19.1327 30.3518C18.5853 30.4346 18.0366 30.458 17.484 30.4484ZM6.05183 18.9564C6.01137 17.0836 6.47316 15.3286 7.31879 13.6675C7.55676 13.2003 7.59685 13.197 7.90033 13.5952C9.4543 15.6338 11.0003 17.6787 12.5666 19.7078C12.8011 20.0118 12.7878 20.1997 12.5148 20.4547C12.0578 20.8818 11.6427 21.3533 11.1883 21.7832C10.9625 21.9968 10.9426 22.1746 11.0968 22.4409C11.6575 23.4091 12.3515 24.2569 13.2813 24.8873C13.607 25.1082 13.5895 25.2515 13.2902 25.4712C12.3533 26.1591 11.4234 26.8567 10.5012 27.5643C10.2484 27.7583 10.0627 27.7277 9.84065 27.522C7.79804 25.6298 6.54592 23.3194 6.13577 20.5599C6.10302 20.3391 6.06507 20.1175 6.05532 19.895C6.04153 19.5828 6.05183 19.2693 6.05183 18.9564ZM23.2184 9.07505C23.1957 9.19578 23.1026 9.25064 23.0188 9.31087C20.8633 10.8588 18.7053 12.4034 16.5539 13.9569C16.3222 14.1241 16.1662 14.0903 15.9784 13.8969C15.5628 13.4693 15.1154 13.0719 14.7115 12.6341C14.4795 12.3824 14.2921 12.3994 14.0185 12.5571C13.048 13.1167 12.2084 13.818 11.5753 14.7471C11.391 15.0176 11.2547 15.0526 11.0483 14.773C10.3401 13.8134 9.6258 12.8582 8.90144 11.9108C8.71395 11.6655 8.77203 11.489 8.95782 11.2873C10.8343 9.2501 13.1302 7.98305 15.874 7.58283C18.3215 7.22584 20.654 7.63473 22.852 8.77793C22.9929 8.85123 23.1591 8.90323 23.2184 9.07505ZM29.011 18.7824C29.0172 20.8108 28.5796 22.5426 27.7572 24.1799C27.5094 24.6732 27.4555 24.6719 27.1162 24.2239C25.614 22.2402 24.1192 20.2509 22.6047 18.2766C22.3503 17.9451 22.3101 17.7213 22.645 17.4178C23.0743 17.0286 23.4395 16.5696 23.8584 16.1678C24.0881 15.9473 24.0793 15.763 23.9383 15.5042C23.3939 14.5047 22.6703 13.6654 21.7357 13.0183C21.4416 12.8147 21.428 12.6789 21.7191 12.4647C22.6673 11.7675 23.6136 11.067 24.5411 10.3425C24.8939 10.067 25.0863 10.3019 25.2975 10.5013C27.1523 12.2528 28.3502 14.3695 28.8217 16.885C28.9509 17.5744 29.0377 18.2686 29.011 18.7824Z" fill="white"/>
<defs>
<linearGradient id="paint0_linear" x1="9.6268" y1="4.5817" x2="27.9795" y2="31.8396" gradientUnits="userSpaceOnUse">
<stop stop-color="white" stop-opacity="0.5"/>
<stop offset="1" stop-color="white" stop-opacity="0"/>
</linearGradient>
</defs>
</svg>
